<svg width="34" height="35" viewBox="0 0 34 35" fill="none" xmlns="http://www.w3.org/2000/svg">
<g filter="url(#filter0_d_17_749)">
<path d="M24.1575 16.275L19.5 20H13.25V18.75H18.3312C18.4443 18.7499 18.5552 18.7192 18.6522 18.6611C18.7492 18.603 18.8286 18.5197 18.8819 18.42C18.9353 18.3203 18.9606 18.2081 18.9552 18.0951C18.9498 17.9822 18.9139 17.8729 18.8512 17.7787L17.7413 16.1137C17.5135 15.771 17.2046 15.4899 16.8419 15.2956C16.4791 15.1013 16.074 14.9997 15.6625 15H5.75C5.41848 15 5.10054 15.1317 4.86612 15.3661C4.6317 15.6005 4.5 15.9185 4.5 16.25V23.75C4.5 24.413 4.76339 25.0489 5.23223 25.5178C5.70107 25.9866 6.33696 26.25 7 26.25H19.0487C19.5833 26.2501 20.1116 26.136 20.5984 25.9152C21.0852 25.6945 21.5192 25.3722 21.8713 24.97L29.5 16.25L27.685 15.645C27.0912 15.4471 26.4573 15.401 25.8411 15.5111C25.2249 15.6211 24.6461 15.8838 24.1575 16.275ZM26.0725 9.2375C26.6362 8.65625 26.985 7.8525 26.985 6.965C26.985 6.0775 26.6362 5.27375 26.0725 4.6925C25.7874 4.39497 25.4451 4.15812 25.0662 3.99616C24.6873 3.8342 24.2796 3.75047 23.8675 3.75C23.8675 3.75 22.3125 3.74625 20.75 5.3575C19.1875 3.74625 17.6325 3.75 17.6325 3.75C17.2205 3.75052 16.8129 3.83415 16.4341 3.99588C16.0552 4.15762 15.7128 4.39412 15.4275 4.69125C14.8637 5.27375 14.515 6.07625 14.515 6.96375C14.515 7.85125 14.8637 8.65625 15.4275 9.23625L20.75 15L26.0725 9.2375Z" fill="white"/>
</g>
<defs>
<filter id="filter0_d_17_749" x="-2" y="0" width="38" height="38" filterUnits="userSpaceOnUse" color-interpolation-filters="sRGB">
<feFlood flood-opacity="0" result="BackgroundImageFix"/>
<feColorMatrix in="SourceAlpha" type="matrix" values="0 0 0 0 0 0 0 0 0 0 0 0 0 0 0 0 0 0 127 0" result="hardAlpha"/>
<feOffset dy="4"/>
<feGaussianBlur stdDeviation="2"/>
<feComposite in2="hardAlpha" operator="out"/>
<feColorMatrix type="matrix" values="0 0 0 0 0 0 0 0 0 0 0 0 0 0 0 0 0 0 0.25 0"/>
<feBlend mode="normal" in2="BackgroundImageFix" result="effect1_dropShadow_17_749"/>
<feBlend mode="normal" in="SourceGraphic" in2="effect1_dropShadow_17_749" result="shape"/>
</filter>
</defs>
</svg>
