<svg width="30" height="30" viewBox="0 0 30 30" fill="none" xmlns="http://www.w3.org/2000/svg">
<path d="M15.8875 2.86242C15.7713 2.74526 15.6331 2.65227 15.4808 2.58881C15.3284 2.52535 15.1651 2.49268 15 2.49268C14.835 2.49268 14.6716 2.52535 14.5193 2.58881C14.367 2.65227 14.2287 2.74526 14.1125 2.86242L2.86255 14.1124C2.74539 14.2286 2.65239 14.3669 2.58893 14.5192C2.52547 14.6715 2.4928 14.8349 2.4928 14.9999C2.4928 15.1649 2.52547 15.3283 2.58893 15.4806C2.65239 15.633 2.74539 15.7712 2.86255 15.8874C2.97935 16.0033 3.11787 16.0949 3.27016 16.1571C3.42246 16.2193 3.58554 16.2509 3.75005 16.2499H5.00005V24.9999C5.00005 25.663 5.26344 26.2988 5.73228 26.7677C6.20112 27.2365 6.837 27.4999 7.50005 27.4999H22.5C23.1631 27.4999 23.799 27.2365 24.2678 26.7677C24.7367 26.2988 25 25.663 25 24.9999V16.2499H26.25C26.5816 16.2499 26.8995 16.1182 27.1339 15.8838C27.3684 15.6494 27.5 15.3314 27.5 14.9999C27.501 14.8354 27.4695 14.6723 27.4073 14.52C27.3451 14.3677 27.2534 14.2292 27.1375 14.1124L15.8875 2.86242ZM7.50005 24.9999V13.0124L15 5.51242L22.5 13.0124V24.9999H7.50005Z" fill="#FC5800"/>
</svg>
