<svg width="30" height="30" viewBox="0 0 30 30" fill="none" xmlns="http://www.w3.org/2000/svg">
<path d="M2.5 13.75H8.75V16.25H2.5V13.75ZM21.25 13.75H27.5V16.25H21.25V13.75ZM13.75 21.25H16.25V27.5H13.75V21.25ZM13.75 2.5H16.25V8.75H13.75V2.5ZM5.2775 7.045L7.045 5.2775L11.465 9.6975L9.6975 11.465L5.2775 7.045ZM24.7225 22.955L22.955 24.7225L18.535 20.3025L20.3025 18.535L24.7225 22.955ZM9.6975 18.535L11.465 20.3025L7.045 24.7225L5.2775 22.955L9.6975 18.535ZM18.535 9.69625L22.955 5.2775L24.7225 7.04625L20.3025 11.465L18.535 9.69625Z" fill="white"/>
</svg>
