<svg width="290" height="251" viewBox="0 0 290 251" fill="none" xmlns="http://www.w3.org/2000/svg">
<g clip-path="url(#clip0_16_317)">
<path d="M42.4669 226.553C-14.1622 193.955 -14.1622 141.105 42.4669 108.507C99.096 75.9093 190.904 75.9093 247.527 108.507C304.156 141.105 304.156 193.955 247.527 226.553C190.897 259.151 99.0896 259.151 42.4669 226.553Z" fill="#F5F5F5"/>
<path d="M114.999 130.108C138.793 143.803 138.793 166.01 114.999 179.712C91.2059 193.413 52.6289 193.407 28.8355 179.712C5.04213 166.017 5.04213 143.809 28.8355 130.108C52.6289 116.413 91.2059 116.413 114.999 130.108Z" fill="#E0E0E0"/>
<path d="M262.543 130.682C289.094 145.965 289.094 170.747 262.543 186.03C235.992 201.312 192.943 201.312 166.392 186.03C139.841 170.747 139.841 145.965 166.392 130.682C192.943 115.4 235.992 115.4 262.543 130.682Z" fill="#E0E0E0"/>
<path d="M132.404 171.806L74.5259 205.12C73.1019 205.94 73.1019 207.269 74.5259 208.089L132.404 241.403C133.828 242.223 136.139 242.223 137.563 241.403L195.441 208.089C196.865 207.269 196.865 205.94 195.441 205.12L137.563 171.806C136.139 170.986 133.828 170.986 132.404 171.806Z" fill="#E0E0E0"/>
<path d="M255.326 153.18L250.245 149.037C250.245 149.037 249.164 134.658 252.53 122.428C257.255 105.229 266.97 98.8073 272.912 101.731C277.132 103.809 278.621 110.263 269.65 119.505C264.355 124.958 256.996 136.917 255.326 153.18Z" fill="#FC5800"/>
<path opacity="0.3" d="M255.326 153.18L250.245 149.037C250.245 149.037 249.164 134.658 252.53 122.428C257.255 105.229 266.97 98.8073 272.912 101.731C277.132 103.809 278.621 110.263 269.65 119.505C264.355 124.958 256.996 136.917 255.326 153.18Z" fill="black"/>
<path d="M253.404 143.874C253.404 143.874 253.442 143.874 253.455 143.874C253.676 143.874 253.844 143.687 253.837 143.474C253.397 126.83 262.724 111.741 270.957 105.326C271.126 105.19 271.158 104.945 271.022 104.777C270.886 104.609 270.64 104.577 270.466 104.713C262.077 111.244 252.595 126.61 253.041 143.5C253.041 143.7 253.197 143.861 253.391 143.88L253.404 143.874Z" fill="white"/>
<path d="M265.605 166.482C269.1 165.346 269.896 163.345 270.498 160.86C270.699 160.028 270.783 159.176 270.867 158.331C270.951 157.498 271.035 156.665 271.113 155.826C271.197 155.007 271.281 154.155 271.689 153.432C272.498 151.974 274.291 151.444 275.909 151.005C277.689 150.521 279.663 149.741 280.395 147.888C280.958 146.462 280.744 144.842 280.304 143.371C279.864 141.899 279.204 140.492 278.88 138.995C278.641 137.917 278.589 136.736 279.094 135.755C279.404 135.142 279.909 134.652 280.433 134.213C281.806 133.07 283.424 132.199 284.395 130.65C284.757 130.076 284.99 129.424 285.016 128.746C285.1 126.707 283.443 125.778 281.864 125.268C280.796 124.926 279.592 124.99 278.485 125.132C274.893 125.597 271.825 128.404 268.207 128.424C266.809 128.43 265.449 128.011 264.058 127.849C262.673 127.682 261.132 127.817 260.09 128.74C258.032 130.566 259.041 134.226 257.268 136.33C255.967 137.879 253.928 138.098 252.29 139.118C250.277 140.376 249.086 141.783 248.2 144.029C247.3 146.314 246.989 148.837 247.371 151.27C248.174 156.362 251.837 159.35 255.358 162.661C256.873 164.087 262.109 167.624 265.611 166.488L265.605 166.482Z" fill="#FC5800"/>
<path opacity="0.1" d="M265.605 166.482C269.1 165.346 269.896 163.345 270.498 160.86C270.699 160.028 270.783 159.176 270.867 158.331C270.951 157.498 271.035 156.665 271.113 155.826C271.197 155.007 271.281 154.155 271.689 153.432C272.498 151.974 274.291 151.444 275.909 151.005C277.689 150.521 279.663 149.741 280.395 147.888C280.958 146.462 280.744 144.842 280.304 143.371C279.864 141.899 279.204 140.492 278.88 138.995C278.641 137.917 278.589 136.736 279.094 135.755C279.404 135.142 279.909 134.652 280.433 134.213C281.806 133.07 283.424 132.199 284.395 130.65C284.757 130.076 284.99 129.424 285.016 128.746C285.1 126.707 283.443 125.778 281.864 125.268C280.796 124.926 279.592 124.99 278.485 125.132C274.893 125.597 271.825 128.404 268.207 128.424C266.809 128.43 265.449 128.011 264.058 127.849C262.673 127.682 261.132 127.817 260.09 128.74C258.032 130.566 259.041 134.226 257.268 136.33C255.967 137.879 253.928 138.098 252.29 139.118C250.277 140.376 249.086 141.783 248.2 144.029C247.3 146.314 246.989 148.837 247.371 151.27C248.174 156.362 251.837 159.35 255.358 162.661C256.873 164.087 262.109 167.624 265.611 166.488L265.605 166.482Z" fill="black"/>
<path d="M279.877 127.946C279.799 127.746 279.566 127.643 279.366 127.727C275.249 129.34 268.86 134.703 263.236 141.906C263.152 141.957 263.087 142.035 263.054 142.138C259.223 147.088 255.766 152.884 253.643 158.911C253.572 159.112 253.676 159.331 253.87 159.408H253.883C254.096 159.479 254.316 159.376 254.388 159.17C256.478 153.226 259.87 147.521 263.631 142.648C268.815 143.1 274.569 145.094 274.628 145.113C274.835 145.184 275.061 145.075 275.132 144.874C275.204 144.668 275.113 144.449 274.893 144.371C274.835 144.352 269.359 142.454 264.213 141.912C269.637 135.071 275.708 129.992 279.65 128.45C279.851 128.372 279.955 128.14 279.87 127.94L279.877 127.946Z" fill="white"/>
<path d="M45.8068 149.211C46.2275 140.169 47.2049 131.696 43.0301 118.678C39.5219 107.752 29.088 96.6517 22.3629 96.8905C16.1039 97.1164 12.3757 103.99 19.858 111.715C21.4438 113.354 36.7969 126.571 37.5089 141.557L39.153 150.224C39.3536 151.27 40.4993 151.838 41.4507 151.367L45.8068 149.218V149.211Z" fill="#FC5800"/>
<path opacity="0.3" d="M45.8068 149.211C46.2275 140.169 47.2049 131.696 43.0301 118.678C39.5219 107.752 29.088 96.6517 22.3629 96.8905C16.1039 97.1164 12.3757 103.99 19.858 111.715C21.4438 113.354 36.7969 126.571 37.5089 141.557L39.153 150.224C39.3536 151.27 40.4993 151.838 41.4507 151.367L45.8068 149.218V149.211Z" fill="black"/>
<path d="M43.3279 148.598C43.1596 148.553 43.0301 148.398 43.0301 148.217C42.7259 125.248 34.4668 109.159 22.0588 101.815C21.8711 101.705 21.8063 101.453 21.9164 101.266C22.0264 101.079 22.2724 101.008 22.4665 101.124C35.0299 108.559 43.522 124.945 43.8262 148.205C43.8262 148.424 43.6515 148.605 43.4314 148.611C43.3926 148.611 43.3537 148.611 43.3214 148.598H43.3279Z" fill="white"/>
<path d="M40.4411 151.831C38.8876 152.638 36.9912 151.902 36.3698 150.27C35.1723 147.133 32.7192 143.132 29.0039 139.356C23.2692 133.516 15.2949 129.798 14.0586 125.881C12.5699 121.17 16.7771 118.82 23.554 120.505C31.6965 122.525 40.4799 132.186 41.3731 151.354L40.4411 151.838V151.831Z" fill="#FC5800"/>
<path opacity="0.1" d="M40.4411 151.831C38.8876 152.638 36.9912 151.902 36.3698 150.27C35.1723 147.133 32.7192 143.132 29.0039 139.356C23.2692 133.516 15.2949 129.798 14.0586 125.881C12.5699 121.17 16.7771 118.82 23.554 120.505C31.6965 122.525 40.4799 132.186 41.3731 151.354L40.4411 151.838V151.831Z" fill="black"/>
<path d="M39.1336 150.605C38.9848 150.566 38.8682 150.444 38.8424 150.282C36.2598 133.47 25.3081 125.629 19.8775 123.828C19.6704 123.757 19.5539 123.532 19.6251 123.325C19.6963 123.112 19.9164 123.002 20.13 123.073C26.1366 125.061 36.9977 133.006 39.632 150.166C39.6644 150.386 39.5155 150.586 39.2954 150.624C39.2372 150.631 39.1789 150.624 39.1272 150.612L39.1336 150.605Z" fill="white"/>
<path d="M253.604 128.959C256.446 137.42 258.886 148.34 262.731 164.803C266.33 180.228 266.349 191.122 261.352 194.859C256.491 198.492 242.005 196.317 232.924 177.046C230.083 171.018 218.607 151.367 218.607 151.367C218.607 151.367 214.354 150.528 210.296 148.43L178.981 149.973C166.166 147.352 144.618 144.313 146.243 139.614C147.964 134.632 155.013 130.682 162.062 128.223C177.46 122.854 188.522 121.621 204.218 120.615L253.611 128.953L253.604 128.959Z" fill="#37474F"/>
<path d="M209.48 142.977C205.286 136.349 205.215 132.496 205.215 132.496C205.215 132.496 204.335 140.718 208.367 146.43L180.813 149.882L210.296 148.43C214.354 150.528 218.607 151.367 218.607 151.367C218.607 151.367 213.681 149.598 209.487 142.977H209.48Z" fill="#263238"/>
<path d="M202.289 166.256C204.445 167.876 207.085 169.36 209.48 169.683C210.38 169.805 211.26 169.708 212.05 169.463C214.95 168.586 219.681 168.185 221.856 173.91C224.322 180.409 232.07 182.919 234.471 187.301C235.675 189.496 236.775 196.053 236.154 200.196C235.649 203.597 228.963 201.693 226.212 197.84C223.461 193.994 217.849 189.096 214.186 186.301C208.406 183.7 201.888 179.705 199.118 178.105L202.289 166.249V166.256Z" fill="#874C4C"/>
<path d="M159.764 132.238C142.916 134.858 143.563 144.784 148.398 151.186C153.609 158.085 171.195 166.475 180.671 170.857C189.389 174.891 205.15 181.622 205.15 181.622C205.15 181.622 204.671 175.059 209.487 169.683C199.532 163.99 189.079 146.068 173.208 144.861L159.77 132.244L159.764 132.238Z" fill="#37474F"/>
<path d="M233.779 202.474C234.549 202.616 235.798 202.184 236.504 201.583C237.209 200.983 238.471 196.13 236.568 190.541C234.665 184.952 231.326 181.654 229.306 179.867C227.287 178.079 226.413 175.891 225.5 173.116C224.588 170.341 222.193 167.011 220.704 166.746C219.215 166.481 217.131 167.791 217.131 167.791L233.779 202.474Z" fill="#263238"/>
<path d="M209.642 184.281C210.16 186.056 211.694 186.391 213.358 186.882C215.629 187.56 217.914 189.631 220.115 191.98C221.617 193.574 222.879 195.188 224.257 196.879C225.662 198.602 226.898 201.061 228.342 202.319C230.445 204.152 234.316 203.436 235.138 200.493C235.843 197.957 235.708 191.806 232.368 186.204C230.549 183.152 226.037 180.428 224.542 176.188C223.539 173.348 222.219 169.973 219.875 167.959C218.49 166.765 217.351 167.185 215.798 167.772C213.739 168.54 211.629 169.186 209.487 169.683C209.688 171.47 210.393 173.2 211.5 174.613C211.882 175.097 212.315 175.575 212.458 176.169C212.555 176.575 212.503 176.995 212.458 177.408C212.387 177.982 212.238 178.66 211.694 178.86C211.474 178.944 211.234 178.924 211.001 178.976C210.141 179.17 209.811 180.196 209.662 181.067C209.5 182.009 209.37 182.977 209.558 183.913C209.584 184.042 209.61 184.165 209.649 184.281H209.642Z" fill="#FC5800"/>
<path opacity="0.4" d="M209.642 184.281C210.16 186.056 211.694 186.391 213.358 186.882C215.629 187.56 217.914 189.631 220.115 191.98C221.617 193.574 222.879 195.188 224.257 196.879C225.662 198.602 226.898 201.061 228.342 202.319C230.445 204.152 234.316 203.436 235.138 200.493C235.843 197.957 235.708 191.806 232.368 186.204C230.549 183.152 226.037 180.428 224.542 176.188C223.539 173.348 222.219 169.973 219.875 167.959C218.49 166.765 217.351 167.185 215.798 167.772C213.739 168.54 211.629 169.186 209.487 169.683C209.688 171.47 210.393 173.2 211.5 174.613C211.882 175.097 212.315 175.575 212.458 176.169C212.555 176.575 212.503 176.995 212.458 177.408C212.387 177.982 212.238 178.66 211.694 178.86C211.474 178.944 211.234 178.924 211.001 178.976C210.141 179.17 209.811 180.196 209.662 181.067C209.5 182.009 209.37 182.977 209.558 183.913C209.584 184.042 209.61 184.165 209.649 184.281H209.642Z" fill="black"/>
<path d="M217.934 189.805C217.934 189.805 216.769 189.689 216.024 188.134C215.455 186.94 215.791 184.481 216.561 182.803C216.879 182.119 217.778 181.957 218.303 182.5C218.613 182.822 218.684 183.306 218.484 183.706C217.94 184.816 217.047 187.217 217.927 189.799L217.934 189.805Z" fill="#F5F5F5"/>
<path d="M221.151 193.116C221.151 193.116 219.662 192.645 219.261 191.038C219.261 191.038 218.484 187.74 219.837 185.21C220.18 184.565 221.015 184.384 221.52 184.913C221.817 185.229 221.888 185.688 221.688 186.081C221.112 187.211 219.882 189.495 221.151 193.122V193.116Z" fill="#F5F5F5"/>
<path d="M224.264 196.885C224.264 196.885 222.872 196.285 222.471 194.678C222.471 194.678 221.772 191.599 223.125 189.07C223.468 188.424 224.303 188.243 224.808 188.773C225.105 189.089 225.177 189.547 224.976 189.941C224.4 191.07 222.995 193.264 224.257 196.885H224.264Z" fill="#F5F5F5"/>
<path d="M203.7 162.745C200.684 161.983 196.257 160.905 194.425 158.498C192.593 156.091 188.794 153.767 183.661 157.13C180.405 159.266 176.522 159.963 172.703 160.215C171.046 160.325 169.188 160.124 167.564 160.454C165.609 160.854 163.557 162.041 161.881 163.08C160.813 163.739 159.777 164.494 159.052 165.52C157.764 167.353 157.725 169.966 158.955 171.832C159.175 172.167 159.434 172.483 159.758 172.716C160.152 173.006 160.625 173.168 161.104 173.271C162.877 173.658 164.36 173.109 166.03 172.645C167.421 172.264 168.839 171.967 170.256 171.709C173.46 171.128 176.722 170.715 179.978 170.58C181.37 170.521 184.257 170.309 185.648 170.405C191.461 170.805 199.668 174.065 199.668 174.065L203.7 162.745Z" fill="#9E6767"/>
<path d="M264.051 190.463C263.093 196.317 256.511 199.137 242.394 196.317C228.277 193.503 194.677 172.412 194.677 172.412C194.677 172.412 195.991 164.326 203.713 162.157C203.713 162.157 210.736 163.422 222.199 165.913C226.555 166.862 232.102 168.327 237.5 170.134C245.248 180.505 253.313 176.317 256.213 179.963C261.054 186.049 264.045 190.463 264.045 190.463H264.051Z" fill="#37474F"/>
<path d="M157.492 172.154C156.787 171.819 156.029 170.734 155.816 169.831C155.602 168.927 157.453 164.268 162.301 160.879C167.149 157.485 171.797 156.794 174.489 156.536C177.182 156.278 179.176 155.026 181.557 153.329C183.939 151.625 187.842 150.353 189.202 151.012C190.561 151.67 191.467 153.961 191.467 153.961L157.499 172.161L157.492 172.154Z" fill="#263238"/>
<path d="M187.739 171.677C186.27 172.806 184.833 172.174 183.195 171.593C180.962 170.799 177.887 171.135 174.722 171.728C172.567 172.135 170.593 172.696 168.483 173.245C166.327 173.806 163.881 175.065 161.965 175.233C159.182 175.472 156.482 172.619 157.563 169.76C158.495 167.295 162.25 162.416 168.256 159.86C171.531 158.466 176.787 158.924 180.502 156.381C182.994 154.677 186.056 152.735 189.143 152.483C190.969 152.335 191.642 153.348 192.548 154.729C193.752 156.562 195.079 158.324 196.509 159.989C195.292 161.312 193.7 162.293 191.965 162.783C191.37 162.951 190.736 163.074 190.27 163.474C189.952 163.745 189.739 164.113 189.538 164.481C189.253 164.984 188.975 165.623 189.292 166.107C189.422 166.301 189.629 166.43 189.784 166.604C190.367 167.269 190.024 168.288 189.629 169.076C189.202 169.928 188.729 170.786 188.03 171.438C187.933 171.528 187.836 171.606 187.739 171.683V171.677Z" fill="#FC5800"/>
<path opacity="0.4" d="M187.739 171.677C186.27 172.806 184.833 172.174 183.195 171.593C180.962 170.799 177.887 171.135 174.722 171.728C172.567 172.135 170.593 172.696 168.483 173.245C166.327 173.806 163.881 175.065 161.965 175.233C159.182 175.472 156.482 172.619 157.563 169.76C158.495 167.295 162.25 162.416 168.256 159.86C171.531 158.466 176.787 158.924 180.502 156.381C182.994 154.677 186.056 152.735 189.143 152.483C190.969 152.335 191.642 153.348 192.548 154.729C193.752 156.562 195.079 158.324 196.509 159.989C195.292 161.312 193.7 162.293 191.965 162.783C191.37 162.951 190.736 163.074 190.27 163.474C189.952 163.745 189.739 164.113 189.538 164.481C189.253 164.984 188.975 165.623 189.292 166.107C189.422 166.301 189.629 166.43 189.784 166.604C190.367 167.269 190.024 168.288 189.629 169.076C189.202 169.928 188.729 170.786 188.03 171.438C187.933 171.528 187.836 171.606 187.739 171.683V171.677Z" fill="black"/>
<path d="M177.777 171.257C177.777 171.257 178.787 171.851 180.308 171.031C181.473 170.405 182.658 168.224 183.027 166.41C183.182 165.668 182.548 165.01 181.797 165.139C181.35 165.217 181.014 165.565 180.936 166.004C180.723 167.224 180.017 169.689 177.777 171.251V171.257Z" fill="#F5F5F5"/>
<path d="M173.221 172.038C173.221 172.038 174.703 172.529 175.978 171.47C175.978 171.47 178.561 169.269 178.962 166.43C179.065 165.707 178.502 165.068 177.777 165.197C177.35 165.275 177.02 165.61 176.949 166.036C176.742 167.288 176.386 169.857 173.221 172.038Z" fill="#F5F5F5"/>
<path d="M168.483 173.245C168.483 173.245 169.958 173.58 171.234 172.522C171.234 172.522 173.622 170.45 174.023 167.611C174.127 166.888 173.564 166.249 172.839 166.378C172.412 166.455 172.081 166.791 172.01 167.217C171.803 168.469 171.641 171.063 168.476 173.245H168.483Z" fill="#F5F5F5"/>
<path d="M227.746 167.243C227.746 167.243 237.228 169.089 244.258 173.813C244.258 173.813 237.034 165.378 225.869 163.861L227.746 167.243Z" fill="#263238"/>
<path d="M173.201 144.861C179.467 145.287 184.218 148.469 185.454 149.231L186.082 149.631L189.868 149.444C189.053 148.734 186.994 147.081 183.849 145.797C178.049 143.435 173.208 144.861 173.208 144.861H173.201Z" fill="#263238"/>
<path d="M185.046 114.974C192.309 116.368 196.509 116.355 199.979 108.572C204.529 98.3554 211.603 81.8661 211.603 81.8661L215.189 53.9277C207.927 52.9015 201.441 56.9093 197.228 66.8352C192.904 77.0193 184.593 97.923 184.593 97.923C179.331 97.4906 174.03 97.5616 168.761 97.1873C166.334 97.0131 164.101 96.7936 162.075 95.2899C160.722 94.2831 159.512 93.1537 158.055 92.3212C157.123 91.7855 156.126 91.224 155.11 90.8626C154.172 90.5335 153.427 89.9204 152.605 89.3395C152.366 89.1717 152.107 88.9975 151.816 88.991C151.266 88.9781 150.89 89.5525 150.774 90.0882C150.618 90.8303 150.761 91.6112 151.071 92.3018C151.388 92.9924 151.867 93.5926 152.405 94.1282C152.586 94.3089 152.787 94.5929 152.625 94.7865C152.515 94.922 152.301 94.9091 152.126 94.8704C150.204 94.4961 148.43 94.025 146.553 93.4248C145.718 93.1601 144.761 93.1408 143.964 93.5151C142.573 94.1734 142.288 96.0321 142.489 97.5552C143.848 107.681 155.201 108.623 163.13 110.347C168.897 111.599 174.671 112.851 180.444 114.051C181.972 114.367 183.499 114.69 185.033 114.98L185.046 114.974Z" fill="#874C4C"/>
<path d="M216.794 53.4242C211.649 53.5533 205.895 52.8111 200.665 59.8715C195.441 66.9319 188.192 88.9199 188.192 88.9199C188.192 88.9199 201.649 90.1526 204.723 97.4905L216.633 74.6313L216.794 53.4177V53.4242Z" fill="#FC5800"/>
<path d="M235.047 53.5857C245.306 55.4766 252.148 57.6774 254.083 59.549C258.446 68.4616 252.769 98.3361 252.769 98.3361L252.951 115.6L253.598 128.953C242.517 138.291 206.71 134.264 200.665 121.176C200.665 121.176 199.118 87.9004 200.665 75.1929C202.309 61.6916 208.412 53.818 220.031 53.1404L235.041 53.5792L235.047 53.5857Z" fill="#E0E0E0"/>
<path d="M209.778 36.1604C217.485 36.1604 223.733 29.9308 223.733 22.2461C223.733 14.5614 217.485 8.33179 209.778 8.33179C202.071 8.33179 195.823 14.5614 195.823 22.2461C195.823 29.9308 202.071 36.1604 209.778 36.1604Z" fill="#263238"/>
<path d="M237.416 28.9C237.416 28.9 236.284 40.2909 235.539 42.2206C234.788 44.1567 232.879 44.8924 232.879 44.8924L232.167 37.0447L237.41 28.8936L237.416 28.9Z" fill="#263238"/>
<path d="M232.652 13.2948C232.652 13.2948 235.164 12.572 237.384 14.3855C239.559 16.1603 239.17 22.5237 237.416 28.9L233.002 29.9068L232.652 13.2883V13.2948Z" fill="#263238"/>
<path d="M231.662 30.0617C232.62 30.4941 233.708 28.6354 234.685 27.3576C235.662 26.0797 239.099 24.1049 241.319 27.6867C243.585 31.3396 240.633 36.6187 237.986 38.0257C234.795 39.7165 233.112 36.7672 233.112 36.7672L234.795 54.7667C230.698 64.5958 211.545 66.1318 217.688 55.212L217.189 50.6492C217.189 50.6492 213.513 51.5528 210.348 51.514C208.005 51.4818 204.988 49.5521 202.846 45.2281C199.946 39.3745 198.691 33.5726 198.807 21.1168C198.937 7.46706 215.092 6.22148 224.173 10.6036C233.248 14.9857 231.662 30.0682 231.662 30.0682V30.0617Z" fill="#9E6767"/>
<path d="M231.093 6.01484C228.031 4.97579 224.749 4.60147 221.52 4.26587C214.503 3.54305 207.37 2.95576 200.762 0.496871C199.946 0.193544 199.072 -0.142052 198.231 0.0644687C196.606 0.464602 196.108 2.53626 196.224 4.20134C196.335 5.74379 196.71 7.26688 197.331 8.68025C196.328 7.72509 194.529 8.0736 193.655 9.14492C192.781 10.2162 192.684 11.7522 193.014 13.1011C195.046 21.2845 203.098 22.0654 209.558 21.3038C211.804 21.0392 216.497 20.097 218.516 17.6316C219.895 20.9553 223.422 23.2722 227.034 23.2206C227.203 25.4213 227.623 27.6027 228.277 29.7066C228.581 30.6747 229.067 31.7589 230.057 32.0171C230.821 32.2171 231.636 31.817 232.148 31.2233C233.106 30.1132 233.604 28.6289 234.568 27.4801C235.805 26.0215 236.089 15.9601 236.128 14.1014C236.128 13.9465 236.199 13.8239 236.277 13.6884C237.591 11.3392 235.352 7.87353 233.293 6.89256C232.575 6.55051 231.83 6.25363 231.08 6.00194L231.093 6.01484Z" fill="#263238"/>
<path d="M235.442 13.9529C236.763 15.192 238.847 15.1275 240.089 13.8045C241.332 12.4879 241.268 10.4098 239.941 9.17065L235.442 13.9464V13.9529Z" fill="#263238"/>
<path d="M217.189 50.649C217.189 50.649 224.018 48.5838 226.665 46.7832C228.439 45.5763 229.759 42.1688 230.089 41.0071C230.089 41.0071 230.355 44.5437 228.322 47.648C226.491 50.4554 217.519 53.6242 217.519 53.6242L217.189 50.6426V50.649Z" fill="#874C4C"/>
<path d="M215.966 30.4875C216.082 31.5007 216.963 32.2365 217.947 32.1203C218.924 32.0106 219.629 31.0941 219.513 30.0809C219.396 29.0677 218.516 28.3319 217.532 28.4481C216.555 28.5578 215.849 29.4743 215.966 30.4875Z" fill="#263238"/>
<path d="M220.989 25.2213L217.358 23.6401C216.943 24.6792 217.416 25.8731 218.419 26.3055C219.422 26.7444 220.574 26.2539 220.989 25.2149V25.2213Z" fill="#263238"/>
<path d="M219.455 39.71L213.811 42.569C214.581 44.1889 216.471 44.8601 218.031 44.0727C219.591 43.2854 220.231 41.3299 219.455 39.71Z" fill="#874C4C"/>
<path d="M219.519 41.0072C217.921 41.0072 216.633 42.2979 216.633 43.8856C216.633 44.0598 216.652 44.2341 216.684 44.4019C217.138 44.4019 217.597 44.2922 218.024 44.0727C219.176 43.4919 219.817 42.2786 219.772 41.0265C219.688 41.0201 219.61 41.0007 219.519 41.0007V41.0072Z" fill="#F28F8F"/>
<path d="M203.707 24.3823L200.425 26.6541C201.027 27.5898 202.244 27.8351 203.15 27.2091C204.056 26.5831 204.302 25.3181 203.7 24.3823H203.707Z" fill="#263238"/>
<path d="M202.949 31.5073C203.066 32.5205 203.946 33.2562 204.93 33.1401C205.907 33.0304 206.613 32.1139 206.496 31.1007C206.38 30.0874 205.5 29.3517 204.516 29.4679C203.538 29.5776 202.833 30.494 202.949 31.5073Z" fill="#263238"/>
<path d="M211.047 30.6682L211.603 40.394L206.348 39.2388L211.047 30.6682Z" fill="#874C4C"/>
<path d="M254.083 59.549C260.265 63.5245 262.595 70.7075 259.611 81.2917C256.336 92.8956 250.193 107.41 243.533 117.375C240.847 121.389 239.39 122.57 227.293 120.615C221.176 119.627 215.066 118.317 209.008 116.994C201.752 115.406 193.273 113.302 187.467 110.534C185.577 109.63 183.674 108.365 182.282 106.803C180.185 104.454 180.373 101.324 182.619 99.188C188.658 93.4571 190.315 98.4975 194.697 99.9431C194.697 99.9431 197.286 99.9625 198.522 100.111C199.642 100.246 199.72 100.059 200.658 100.666C202.555 101.886 203.778 102.892 204.93 103.06C212.626 104.19 230.465 105.338 230.465 105.338L241.811 77.9809C241.811 77.9809 248.174 58.5164 254.083 59.549Z" fill="#9E6767"/>
<path d="M202.619 101.963C202.412 101.899 201.454 99.9173 201.169 99.5236C200.509 98.5943 199.817 97.6714 199.014 96.8582C198.296 96.1289 197.344 95.3416 196.386 94.9608C194.943 94.3864 193.331 94.0831 191.836 93.6507C191.622 93.5926 191.396 93.5281 191.189 93.612C190.956 93.7023 190.82 93.9605 190.807 94.2122C190.794 94.4639 190.884 94.7027 190.988 94.935C191.37 95.7869 191.965 96.5355 192.697 97.1164C193.266 97.5681 194.975 99.4204 195.454 99.9689C195.454 99.9689 202.606 102.467 202.606 101.976L202.619 101.963Z" fill="#9E6767"/>
<path d="M250.905 57.729C255.604 58.8971 259.663 60.388 261.177 66.8353C262.692 73.2826 262.116 76.645 256.336 91.5209C252.821 100.569 250.012 106.01 250.012 106.01C250.012 106.01 246.653 97.4907 233.772 96.5484L242.122 71.5401C242.122 71.5401 246.983 60.6461 250.899 57.7355L250.905 57.729Z" fill="#FC5800"/>
<path d="M77.2444 167.714C77.2444 167.714 56.0595 159.989 53.4445 157.872C51.2632 156.104 52.5707 151.87 49.5415 151.147C46.0528 150.315 43.5608 152.18 41.3213 154.232C39.2047 156.175 36.428 157.053 31.2045 155.252C25.9811 153.451 20.9389 150.889 18.8224 151.909C16.7058 152.929 18.1233 154.561 27.2562 158.769C32.5055 161.189 39.1918 163.997 43.4767 165.688C49.0496 167.882 51.6904 170.051 52.1435 170.354C57.7294 174.252 58.7585 175.084 65.3606 179.034C78.5713 186.927 86.3449 189.005 96.8565 187.017L77.2379 167.727L77.2444 167.714Z" fill="#FFA8A7"/>
<path d="M57.4122 159.931C53.1985 162.351 51.1661 165.023 50.9202 169.67C50.9202 169.67 53.7681 171.864 58.2601 174.968C63.6454 178.686 76.6877 187.146 85.387 188.031C98.8889 189.405 103.167 185.352 103.167 185.352L57.4122 159.937V159.931Z" fill="#455A64"/>
<path d="M53.5028 162.925C60.4156 174.529 77.3027 181.751 82.5973 182.287C80.7202 180.751 77.9694 175.549 75.3609 169.902L57.4058 159.931C55.7877 160.86 54.4931 161.828 53.4963 162.925H53.5028Z" fill="#37474F"/>
<path d="M13.8773 150.941C13.5666 149.869 14.0909 148.863 14.3757 148.534C16.2398 146.333 18.6217 145.171 20.2463 144.351C22.0975 143.422 24.4924 143.054 26.5636 143.177C30.6996 143.422 34.2661 146.507 38.4021 146.746C41.496 146.927 44.3051 145.352 47.3149 144.623C48.467 144.345 49.4509 144.326 50.2146 144.377C51.0431 144.429 52.3506 144.997 52.6484 145.7C53.0432 146.63 53.1662 147.475 52.8749 148.346C52.6872 148.908 51.5351 149.966 50.713 150.547C49.5803 151.347 48.1758 151.573 46.4929 152.064C42.2533 153.309 23.2432 153.755 13.8837 150.941H13.8773Z" fill="#37474F"/>
<path d="M53.5416 156.717C53.5545 157.091 53.6063 157.453 53.6452 157.833C53.7034 158.337 53.4186 158.505 52.9914 158.795C51.2438 159.982 49.0496 159.866 47.0625 159.524C45.5155 159.26 43.9427 158.821 42.3957 159.124C40.551 159.486 39.0817 160.828 37.7095 162.106C37.4312 162.364 37.1464 162.712 36.9652 163.074C36.9652 163.074 26.2853 158.524 21.4244 155.962C18.9648 154.665 16.1233 153.451 14.1815 151.405C14.0779 151.296 14.654 150.573 14.7123 150.502C15.3401 149.773 16.2463 149.347 17.1719 149.127C18.6864 148.766 20.3305 148.585 21.8645 148.811C24.2594 149.166 26.5766 149.792 28.9456 150.257C31.101 150.683 33.1981 150.96 35.3729 151.154C37.7225 151.36 40.085 151.399 42.4345 151.27C44.6676 151.147 46.8101 150.844 48.8619 149.915C49.6515 149.56 50.4088 149.121 51.069 148.559C51.4768 148.211 51.7681 147.707 52.0788 147.269C52.4154 146.797 52.6095 146.004 52.9526 146.675C53.7617 148.275 53.93 150.741 53.8199 152.535C53.7422 153.767 53.5804 155 53.5351 156.233C53.5351 156.394 53.5351 156.549 53.5351 156.698L53.5416 156.717Z" fill="#FC5800"/>
<path opacity="0.2" d="M53.5416 156.717C53.5545 157.091 53.6063 157.453 53.6452 157.833C53.7034 158.337 53.4186 158.505 52.9914 158.795C51.2438 159.982 49.0496 159.866 47.0625 159.524C45.5155 159.26 43.9427 158.821 42.3957 159.124C40.551 159.486 39.0817 160.828 37.7095 162.106C37.4312 162.364 37.1464 162.712 36.9652 163.074C36.9652 163.074 26.2853 158.524 21.4244 155.962C18.9648 154.665 16.1233 153.451 14.1815 151.405C14.0779 151.296 14.654 150.573 14.7123 150.502C15.3401 149.773 16.2463 149.347 17.1719 149.127C18.6864 148.766 20.3305 148.585 21.8645 148.811C24.2594 149.166 26.5766 149.792 28.9456 150.257C31.101 150.683 33.1981 150.96 35.3729 151.154C37.7225 151.36 40.085 151.399 42.4345 151.27C44.6676 151.147 46.8101 150.844 48.8619 149.915C49.6515 149.56 50.4088 149.121 51.069 148.559C51.4768 148.211 51.7681 147.707 52.0788 147.269C52.4154 146.797 52.6095 146.004 52.9526 146.675C53.7617 148.275 53.93 150.741 53.8199 152.535C53.7422 153.767 53.5804 155 53.5351 156.233C53.5351 156.394 53.5351 156.549 53.5351 156.698L53.5416 156.717Z" fill="black"/>
<path d="M25.7093 149.521C23.7092 152.251 23.7222 157.085 23.7222 157.085C23.7222 157.085 20.2917 155.645 16.9194 153.767C13.6961 151.967 13.8708 150.934 13.8708 150.934C13.8708 150.934 14.0197 150.205 14.8158 149.514C15.6702 148.772 17.2431 148.062 19.1719 148.211C22.8937 148.501 25.7093 149.514 25.7093 149.514V149.521Z" fill="#FAFAFA"/>
<path d="M25.5668 155.465C25.3209 156.136 25.3079 156.659 25.3597 157.866C25.3597 157.866 25.9228 158.298 26.4212 158.363C26.3824 158.24 26.4536 156.607 26.6801 155.904C26.9067 155.2 25.8128 154.8 25.5668 155.471V155.465Z" fill="#FAFAFA"/>
<path d="M28.8162 156.949C28.5702 157.62 28.5314 158.143 28.5896 159.35C28.5896 159.35 29.1721 159.776 29.6705 159.84C29.6123 159.537 29.7029 158.091 29.9294 157.382C30.156 156.678 29.0621 156.278 28.8162 156.949Z" fill="#FAFAFA"/>
<path d="M32.0654 158.44C31.8194 159.111 31.8 159.615 31.8583 160.815C31.8583 160.815 32.4214 161.267 32.9198 161.331C32.8809 161.209 32.9521 159.576 33.1787 158.873C33.4052 158.169 32.3114 157.769 32.0654 158.44Z" fill="#FAFAFA"/>
<path d="M52.9591 146.688C52.9396 146.32 52.8296 145.991 52.6419 145.694C52.6419 145.694 51.5739 147.882 47.7486 149.147C44.1239 150.347 38.9523 150.928 31.4764 149.205C24.0005 147.482 19.6897 145.887 16.3175 147.223C12.9452 148.559 13.8773 150.934 13.8773 150.934C13.8773 150.934 15.489 147.972 20.2269 148.527C24.7901 149.063 31.5087 151.476 37.7678 151.702C44.2987 151.941 50.8943 151.109 52.9591 146.681V146.688Z" fill="#E0E0E0"/>
<path d="M128.903 160.822C125.673 150.657 116.876 144.745 109.044 138.195C101.219 131.638 88.7333 120.686 88.7333 120.686L44.7 111.831C41.9491 117.433 39.1918 128.14 39.1853 136.284C39.1788 143.88 41.496 154.058 54.8297 163.926C62.914 169.909 69.3672 174.613 75.1602 178.279C81.2833 182.158 94.7982 188.986 102.766 186.301C108.255 184.455 110.773 178.963 109.42 174.226C109.42 174.226 109.426 174.226 109.433 174.226C110.365 174.316 111.303 174.362 112.164 174.375C113.174 174.407 114.1 174.394 114.831 174.394C117.465 174.387 120.132 174.142 122.598 173.219C128.113 171.18 130.78 166.707 128.909 160.815L128.903 160.822Z" fill="#455A64"/>
<path d="M111.342 173.916C110.475 173.903 109.543 173.858 108.611 173.768C103.692 163.306 76.6813 141.899 76.6813 141.899C78.8626 140.841 83.9177 138.143 85.6135 135.11C84.9209 138.969 82.6944 140.944 80.539 142.506C83.853 145.468 97.7821 157.175 101.497 160.693C105.4 164.397 109.452 168.682 111.342 173.916Z" fill="#37474F"/>
<path d="M79.5227 56.2769C85.2704 56.7286 88.0083 58.3227 93.6848 64.5829C99.3613 70.8366 109.886 82.1565 111.756 85.0929C113.627 88.0294 119.142 94.3799 110.87 99.1363C102.598 103.899 84.9079 105.487 84.9079 105.487L79.5227 56.2833V56.2769Z" fill="#F28F8F"/>
<path d="M89.62 91.3531C97.3031 85.0543 94.7723 76.8386 91.9696 71.3077C86.3578 60.246 80.5195 55.8961 78.0858 55.9413L62.5644 53.9277C55.2568 54.9216 47.8327 58.142 44.6999 59.9491C38.6286 63.447 40.2468 67.4355 41.0494 71.056C43.2436 80.9239 46.0009 86.5451 46.823 89.5396C47.645 92.5277 49.1596 97.1874 47.9298 102.021C47.4508 103.893 46.1822 105.713 44.2598 110.876C42.4604 115.703 41.7743 117.562 40.3633 123.983C40.3633 123.983 52.7131 135.265 74.5 132.16C90.5392 129.876 92.578 124.035 92.578 124.035L88.8174 104.364C89.2123 97.8392 89.3223 95.4706 89.6265 91.3531H89.62Z" fill="#FC5800"/>
<g opacity="0.5">
<path d="M89.62 91.3531C97.3031 85.0543 94.7723 76.8386 91.9696 71.3077C86.3578 60.246 80.5195 55.8961 78.0858 55.9413L62.5644 53.9277C55.2568 54.9216 47.8327 58.142 44.6999 59.9491C38.6286 63.447 40.2468 67.4355 41.0494 71.056C43.2436 80.9239 46.0009 86.5451 46.823 89.5396C47.645 92.5277 49.1596 97.1874 47.9298 102.021C47.4508 103.893 46.1822 105.713 44.2598 110.876C42.4604 115.703 41.7743 117.562 40.3633 123.983C40.3633 123.983 52.7131 135.265 74.5 132.16C90.5392 129.876 92.578 124.035 92.578 124.035L88.8174 104.364C89.2123 97.8392 89.3223 95.4706 89.6265 91.3531H89.62Z" fill="white"/>
</g>
<path d="M84.7591 6.58294C76.5194 2.1492 65.9043 3.90462 61.7424 10.5456C61.7424 10.5456 57.5352 9.75819 53.3539 13.4304C48.5965 17.5995 48.6418 23.8855 48.5771 29.6616C48.4994 36.3994 45.9751 38.4129 45.0689 43.5953C44.1498 48.8487 47.6256 52.1853 51.4898 52.6112C51.4898 52.6112 50.2082 47.8741 51.561 45.6734C51.561 45.6734 51.1467 52.4563 57.6193 53.6116C62.8363 54.5409 66.7458 51.0365 66.7458 51.0365C66.7458 51.0365 60.2343 49.9071 59.1145 45.9509L59.8136 39.3487L71.6067 52.0239C78.3965 57.8969 87.9436 54.2118 88.222 51.5076C88.222 51.5076 80.5325 43.5889 90.9016 33.6888C101.271 23.7887 92.9923 11.0231 84.7526 6.58939L84.7591 6.58294Z" fill="#37474F"/>
<path d="M90.6751 36.4573C89.1994 48.2806 85.0439 50.817 83.0245 51.4623C81.005 52.1077 77.3285 51.2171 73.7686 50.2555L73.1925 55.8896C73.1925 55.8896 78.7396 61.3431 77.3091 62.6467C74.6424 65.0733 67.6066 63.9568 64.1891 62.0659C60.5515 60.0459 59.354 58.1291 58.4155 56.7609C58.0725 56.2639 58.0789 55.7476 58.1437 55.1474L59.8201 39.3357C59.8201 39.3357 57.9236 40.4522 55.0691 38.5354C52.506 36.8123 51.9364 31.4298 54.3377 29.1194C56.0465 27.4801 59.2311 27.5318 60.8104 30.5005C61.6453 32.6496 61.147 34.6116 62.6033 34.5406C64.0079 34.476 64.681 33.1207 64.914 31.9978C65.147 30.8748 65.283 30.0746 65.5483 28.5966C69.1471 28.261 73.1408 23.4659 73.9757 19.9615C76.3447 21.3491 78.882 22.4656 81.3998 22.5882C85.3611 22.7882 87.4776 22.2397 89.7495 19.6453C90.1185 20.2455 90.4551 21.2264 90.591 21.8718C90.9988 23.8273 91.1865 25.0535 91.2512 26.6605C91.3742 29.9326 91.0764 33.2111 90.6751 36.4573Z" fill="#FFA8A7"/>
<path d="M73.7621 50.249C69.995 49.3649 62.3573 46.3122 61.4512 43.0918C61.4512 43.0918 61.6583 45.0796 63.8072 47.3255C65.9497 49.5714 73.5226 52.624 73.5226 52.624L73.7621 50.249Z" fill="#F28F8F"/>
<path d="M77.7752 32.4563C77.7299 33.3985 76.9467 34.1278 76.0405 34.0762C75.1279 34.0245 74.4288 33.2243 74.4806 32.2756C74.5324 31.3333 75.3091 30.604 76.2153 30.6557C77.1279 30.7073 77.827 31.5076 77.7752 32.4563Z" fill="#263238"/>
<path d="M88.9405 33.0693C88.8952 33.9277 88.1896 34.586 87.3611 34.5408C86.4485 34.4892 85.8919 33.8502 85.9436 32.908C85.9889 32.0496 86.6945 31.3913 87.523 31.4365C88.3515 31.4817 88.9858 32.211 88.9405 33.0693Z" fill="#263238"/>
<path d="M81.84 29.6489L81.0503 40.8527L86.4744 39.7362L81.84 29.6489Z" fill="#F28F8F"/>
<path d="M72.1245 27.4545L75.4126 25.0085C76.0793 25.9572 75.8786 27.2738 74.9725 27.945C74.0663 28.6227 72.7912 28.4032 72.1245 27.4545Z" fill="#263238"/>
<path d="M74.9337 40.8075L79.9888 43.1373C79.2833 44.5442 77.581 45.1573 76.1894 44.5119C74.7913 43.8666 74.2346 42.2079 74.9337 40.801V40.8075Z" fill="#874C4C"/>
<path d="M76.1893 44.5119C75.199 44.0537 74.6423 43.0921 74.6423 42.066C74.9401 41.9885 75.2508 41.9627 75.5744 42.0014C76.9401 42.1628 77.9175 43.3761 77.8204 44.7314C77.2832 44.8217 76.7136 44.7572 76.1958 44.5119H76.1893Z" fill="#F28F8F"/>
<path d="M87.9307 25.5764L90.9081 28.4354C90.1378 29.2938 88.8498 29.3454 88.0278 28.5581C87.2057 27.7707 87.1604 26.4348 87.9242 25.5764H87.9307Z" fill="#263238"/>
<path d="M95.3159 68.2293C94.6233 68.1519 93.7431 67.926 93.0634 67.7646C91.2446 67.3258 90.2996 67.1386 88.8303 67.2612C87.361 67.3839 85.3869 68.0034 84.3383 69.0425C83.9047 69.4684 83.7493 70.4752 84.4678 70.7334C84.3966 70.9851 84.5325 71.3916 84.8497 71.6175C85.2251 71.8886 85.5681 71.8821 86.0018 71.8563C86.0147 72.2629 86.6426 72.534 87.2834 72.4436C88.1701 72.3145 88.3772 72.0886 90.0666 72.1338C92.0343 72.1919 92.3773 72.9405 92.3773 72.9405" fill="#455A64"/>
<path d="M87.5423 70.5657C87.4646 70.5721 86.0406 70.2623 85.5228 71.8564C85.6717 71.8693 85.827 71.8629 85.9953 71.8564C86.0924 71.3337 86.4419 70.6689 87.5423 70.5721V70.5657Z" fill="#37474F"/>
<path d="M86.0536 69.3459C86.0536 69.3459 84.8562 69.2104 84.1442 70.4947C84.2218 70.5979 84.3189 70.6818 84.4678 70.7335C84.6231 69.9009 85.5876 69.404 86.0601 69.3459H86.0536Z" fill="#37474F"/>
<path d="M112.676 63.3633C111.621 63.6537 110.527 63.9699 109.472 64.2604C107.303 64.8606 105.135 65.4543 102.967 66.0545C102.772 66.1061 102.578 66.1513 102.391 66.1965L100.889 66.4482C99.8533 66.5837 98.8241 66.6805 97.7497 66.9774L97.5231 67.0161C97.1348 67.0613 96.5069 67.0936 96.3128 67.2226C96.0539 67.3904 95.5555 67.8357 95.5555 67.8357L94.8758 68.5134C94.7982 68.5973 94.7205 68.6812 94.6363 68.778L92.6169 72.2953C92.6169 72.2953 91.8531 73.2698 90.9016 73.4699C89.866 73.7538 88.7851 74.2702 88.222 75.122C88.0601 74.9091 87.8336 74.7606 87.5617 74.7606C87.5164 74.3992 87.277 74.0701 86.9469 73.9152C86.6167 73.7603 86.1831 73.7345 85.6523 73.8894C85.6782 73.5538 85.0957 73.1278 83.963 73.3795C81.7364 73.8765 80.4224 74.7606 78.1052 76.2192C75.2184 78.0392 74.2864 79.6978 74.3317 81.0595C74.3899 82.6923 75.555 83.228 75.555 83.228C75.555 83.228 66.571 91.7857 78.8819 99.0526C90.824 106.107 106.449 98.5621 111.336 87.2745C112.818 83.8475 113.407 80.6917 113.698 77.852C114.339 71.6047 113.096 66.8031 112.669 63.3633H112.676Z" fill="#455A64"/>
<path d="M87.9566 77.2258C87.9566 77.2258 89.866 76.361 90.7916 77.4194C90.7916 77.4194 91.6007 77.0322 92.222 77.5033C92.8434 77.9745 92.6298 78.5876 92.6298 78.5876C92.6298 78.5876 93.1541 78.6069 93.3094 79.0458C93.5295 79.6783 93.2253 80.2526 93.0635 80.4656C92.9017 80.6786 91.9243 82.6728 89.6977 83.202C89.6977 83.202 91.7948 84.183 92.2026 87.0549C92.6492 90.1785 91.646 91.8049 91.646 91.8049C91.646 91.8049 97.5231 90.7594 101.976 85.0542C107.452 78.0455 105.472 65.6736 105.472 65.6736L96.3127 67.216C96.3127 67.216 93.4001 68.4745 92.6233 72.2887C89.8013 72.6372 88.7656 73.3987 87.3611 74.2442C87.3611 74.2442 87.4776 74.3991 87.5747 74.754C87.8401 74.7928 88.0601 74.9025 88.2349 75.1154C88.5197 75.4704 88.8433 76.4449 87.9695 77.2258H87.9566Z" fill="#F5F5F5"/>
<path opacity="0.3" d="M87.9566 77.2258C87.9566 77.2258 89.866 76.361 90.7916 77.4194C90.7916 77.4194 91.6007 77.0322 92.222 77.5033C92.8434 77.9745 92.6298 78.5876 92.6298 78.5876C92.6298 78.5876 93.1541 78.6069 93.3094 79.0458C93.5295 79.6783 93.2253 80.2526 93.0635 80.4656C92.9017 80.6786 91.9243 82.6728 89.6977 83.202C89.6977 83.202 91.7948 84.183 92.2026 87.0549C92.6492 90.1785 91.646 91.8049 91.646 91.8049C91.646 91.8049 97.5231 90.7594 101.976 85.0542C107.452 78.0455 105.472 65.6736 105.472 65.6736L96.3127 67.216C96.3127 67.216 93.4001 68.4745 92.6233 72.2887C89.8013 72.6372 88.7656 73.3987 87.3611 74.2442C87.3611 74.2442 87.4776 74.3991 87.5747 74.754C87.8401 74.7928 88.0601 74.9025 88.2349 75.1154C88.5197 75.4704 88.8433 76.4449 87.9695 77.2258H87.9566Z" fill="white"/>
<path opacity="0.1" d="M101.523 73.9021C100.028 73.8376 97.9632 74.2119 96.7723 75.1219C96.2868 75.4962 95.9956 76.4901 96.6817 76.8386C96.5781 77.0838 96.6623 77.5098 96.947 77.7808C97.2901 78.1035 97.6331 78.1358 98.0733 78.168C98.0345 78.5746 98.6299 78.936 99.2901 78.9231C100.203 78.9102 100.455 78.6198 102.125 78.9683C103.271 79.2071 104.067 79.8525 104.468 80.2462C105.044 78.5165 105.394 76.7159 105.588 74.9928C104.3 74.399 102.928 73.9731 101.51 73.9085L101.523 73.9021Z" fill="black"/>
<path d="M105.821 73.999C104.468 73.3536 103.018 72.8761 101.517 72.8115C100.022 72.747 97.9568 73.1213 96.7658 74.0313C96.2804 74.4056 95.9891 75.3995 96.6752 75.748C96.5716 75.9932 96.6558 76.4192 96.9406 76.6902C97.2836 77.0129 97.6267 77.0452 98.0668 77.0775C98.028 77.4841 98.6235 77.8455 99.2837 77.8326C100.196 77.8196 100.449 77.5292 102.119 77.8777C103.795 78.2262 104.753 79.4718 104.753 79.4718L107.776 74.8251C107.09 74.6573 106.449 74.3153 105.815 74.0119L105.821 73.999Z" fill="#455A64"/>
<path d="M99.6138 75.9996C99.6138 75.9996 98.9018 75.6059 98.151 76.1287C97.7756 76.3868 97.6526 76.7289 97.6202 77.0129C97.7626 77.0387 97.9115 77.058 98.0733 77.0645C98.1057 76.3739 98.8759 75.9803 99.6138 75.9996Z" fill="#37474F"/>
<path d="M96.3451 75.3931C96.4098 75.5351 96.5134 75.6577 96.6817 75.7416C96.9017 75.2189 97.3807 74.9543 97.8662 74.8768C97.8662 74.8768 96.8694 74.6897 96.3451 75.3931Z" fill="#37474F"/>
<path opacity="0.1" d="M113.795 71.6951C113.562 68.3391 112.954 65.5705 112.682 63.3633C111.627 63.6537 110.533 63.9699 109.478 64.2604C107.31 64.8606 105.141 65.4543 102.973 66.0545C102.779 66.1061 102.585 66.1513 102.397 66.1965L100.895 66.4482C99.8598 66.5837 98.8306 66.6805 97.7562 66.9774L97.5296 67.0161C97.1413 67.0613 96.5134 67.0936 96.3192 67.2226C96.3192 67.2226 96.0797 67.3324 95.7238 67.5647C96.1509 68.0939 97.7562 69.7977 101.31 70.5721C105.549 71.5015 110.035 70.0881 110.035 70.0881C110.035 70.0881 111.044 72.134 113.802 71.7015L113.795 71.6951Z" fill="black"/>
<path d="M106.371 50.4686C106.06 49.3134 104.611 48.8035 102.293 48.7583C100.462 48.7196 98.714 49.2811 96.0149 48.0678C93.3158 46.8545 91.0893 47.403 90.3578 50.133C89.6264 52.8629 90.2413 56.1737 93.2058 57.3289C95.9567 58.4003 100.41 57.8517 102.934 56.1414C105.459 54.4312 106.371 50.4621 106.371 50.4621V50.4686Z" fill="#37474F"/>
<path d="M98.3647 49.3134C98.4294 49.1391 98.4683 48.9648 98.5006 48.7841C97.7563 48.6873 96.9407 48.4873 96.0151 48.0678C93.316 46.8545 91.0895 47.403 90.3581 50.133C90.1121 51.0494 90.0215 52.0304 90.1186 52.9791C90.6752 53.3082 91.2966 53.5277 91.8662 53.5857C92.3646 53.6374 92.9277 53.5664 93.2448 53.1856C93.6462 52.708 93.4973 51.9271 93.9115 51.4625C94.3776 50.9397 95.2125 51.1269 95.9116 51.0881C96.9796 51.0365 97.9828 50.3072 98.3647 49.3134Z" fill="#F5F5F5"/>
<path opacity="0.4" d="M98.3647 49.3134C98.4294 49.1391 98.4683 48.9648 98.5006 48.7841C97.7563 48.6873 96.9407 48.4873 96.0151 48.0678C93.316 46.8545 91.0895 47.403 90.3581 50.133C90.1121 51.0494 90.0215 52.0304 90.1186 52.9791C90.6752 53.3082 91.2966 53.5277 91.8662 53.5857C92.3646 53.6374 92.9277 53.5664 93.2448 53.1856C93.6462 52.708 93.4973 51.9271 93.9115 51.4625C94.3776 50.9397 95.2125 51.1269 95.9116 51.0881C96.9796 51.0365 97.9828 50.3072 98.3647 49.3134Z" fill="white"/>
<path d="M113.698 55.625C112.404 52.837 111.672 52.2239 108.073 50.9525C104.475 49.6811 102.261 49.836 99.0894 51.7786C97.0959 52.9984 96.2997 56.2575 96.2997 56.2575C95.2188 56.4705 93.8272 56.9158 93.0375 58.1291C91.6459 60.2588 92.7074 64.0472 93.6071 65.3315C94.6622 66.8288 96.6687 68.6617 99.7367 69.2877C104.371 70.2364 108.099 69.9072 110.423 67.5774C113.362 64.641 114.643 57.6515 113.698 55.625Z" fill="#455A64"/>
<path d="M113.019 60.1362C113.09 59.8071 113.116 59.465 113.109 59.1359C113.096 58.0775 112.87 56.6705 112.151 55.8574C111.413 55.0248 110.785 54.3472 109.679 54.0116C108.792 53.747 107.834 53.7728 106.934 53.9858C105.802 54.2568 104.701 54.8635 104.06 55.8315C103.413 56.8061 103.206 57.9226 104.112 58.7809C104.436 59.0842 104.798 59.3424 105.077 59.6844C105.497 60.2072 105.672 60.8913 106.06 61.4399C106.481 62.0401 107.141 62.4467 107.847 62.6467C108.552 62.8468 109.303 62.8468 110.028 62.7435C110.941 62.608 111.866 62.3176 112.423 61.5367C112.721 61.1236 112.915 60.6396 113.019 60.1362Z" fill="#F5F5F5"/>
<path opacity="0.3" d="M113.019 60.1362C113.09 59.8071 113.116 59.465 113.109 59.1359C113.096 58.0775 112.87 56.6705 112.151 55.8574C111.413 55.0248 110.785 54.3472 109.679 54.0116C108.792 53.747 107.834 53.7728 106.934 53.9858C105.802 54.2568 104.701 54.8635 104.06 55.8315C103.413 56.8061 103.206 57.9226 104.112 58.7809C104.436 59.0842 104.798 59.3424 105.077 59.6844C105.497 60.2072 105.672 60.8913 106.06 61.4399C106.481 62.0401 107.141 62.4467 107.847 62.6467C108.552 62.8468 109.303 62.8468 110.028 62.7435C110.941 62.608 111.866 62.3176 112.423 61.5367C112.721 61.1236 112.915 60.6396 113.019 60.1362Z" fill="white"/>
<path d="M107.226 57.6063C107.226 58.1936 106.747 58.6647 106.164 58.6647C105.582 58.6647 105.103 58.1871 105.103 57.6063C105.103 57.0254 105.582 56.5479 106.164 56.5479C106.747 56.5479 107.226 57.0254 107.226 57.6063Z" fill="#263238"/>
<path d="M99.7043 55.6251C99.7043 56.2124 99.2253 56.6835 98.6428 56.6835C98.0603 56.6835 97.5813 56.2059 97.5813 55.6251C97.5813 55.0442 98.0603 54.5667 98.6428 54.5667C99.2253 54.5667 99.7043 55.0442 99.7043 55.6251Z" fill="#263238"/>
<path d="M97.1347 64.3439C97.1347 64.3439 97.1023 64.3439 97.0893 64.3439C96.9534 64.3181 96.8628 64.1826 96.8887 64.0471L97.3612 61.6011C97.3871 61.4656 97.5165 61.3687 97.6589 61.401C97.7949 61.4268 97.8855 61.5624 97.8596 61.6979L97.3871 64.1439C97.3612 64.2665 97.2576 64.3504 97.1347 64.3504V64.3439Z" fill="#263238"/>
<path d="M98.6557 58.7421C97.3612 58.3485 96.3579 58.413 96.112 58.9035C95.7171 59.7102 96.2997 60.8977 96.7075 61.3688C97.0376 61.7496 97.8207 61.9626 98.3903 61.9045C99.1217 61.827 100.293 61.3559 100.513 60.5815C100.733 59.807 100.041 59.1681 98.6492 58.7421H98.6557Z" fill="#263238"/>
<path d="M96.6104 58.839C96.2027 59.0519 96.1379 59.6005 96.2868 59.8716C96.4357 60.1362 96.6946 59.1552 97.3936 59.1552C98.0927 59.1552 99.2189 59.6263 99.6591 59.9167C100.099 60.2072 100.112 59.6844 99.2383 59.2455C98.1704 58.7034 97.1606 58.5485 96.604 58.839H96.6104Z" fill="#37474F"/>
<path d="M98.6946 64.5828C98.5393 64.5828 98.3839 64.5828 98.2286 64.5634C97.1282 64.4731 96.2091 64.0794 95.7754 63.5115C95.6913 63.4018 95.7107 63.2404 95.8208 63.1565C95.9308 63.0726 96.0926 63.092 96.1767 63.2017C96.5133 63.6406 97.3354 63.9761 98.2674 64.0536C99.4325 64.1504 100.494 63.8535 101.122 63.2662C101.225 63.1694 101.387 63.1759 101.484 63.2791C101.581 63.3824 101.575 63.5437 101.471 63.6406C100.824 64.2472 99.8079 64.5828 98.6881 64.5828H98.6946Z" fill="#263238"/>
<path d="M111.614 52.6178C113.038 52.7791 115.873 53.4567 116.74 54.8056C117.608 56.1544 120.384 60.6592 119.627 64.8799C118.915 68.8554 115.355 70.5205 113.038 70.2882C110.721 70.0558 109.297 68.9781 110.462 65.6673C111.627 62.35 112.488 57.6517 111.64 55.4187C110.863 53.3664 110.028 52.4371 111.608 52.6178H111.614Z" fill="#37474F"/>
<path d="M118.54 58.1422C117.951 58.9941 117.148 59.6976 116.216 60.1558C115.789 60.3623 115.329 60.5301 114.96 60.8334C114.598 61.1367 114.339 61.6401 114.494 62.0919C114.689 62.6534 115.362 62.847 115.931 63.0083C116.501 63.1697 117.168 63.5117 117.174 64.099C117.18 64.525 116.831 64.8864 116.792 65.3123C116.74 65.9319 117.426 66.4224 118.048 66.3643C118.624 66.3127 119.109 65.919 119.491 65.4801C119.543 65.2865 119.595 65.0864 119.627 64.8799C120.048 62.5178 119.368 60.0719 118.533 58.1357L118.54 58.1422Z" fill="#F5F5F5"/>
<path opacity="0.4" d="M118.54 58.1422C117.951 58.9941 117.148 59.6976 116.216 60.1558C115.789 60.3623 115.329 60.5301 114.96 60.8334C114.598 61.1367 114.339 61.6401 114.494 62.0919C114.689 62.6534 115.362 62.847 115.931 63.0083C116.501 63.1697 117.168 63.5117 117.174 64.099C117.18 64.525 116.831 64.8864 116.792 65.3123C116.74 65.9319 117.426 66.4224 118.048 66.3643C118.624 66.3127 119.109 65.919 119.491 65.4801C119.543 65.2865 119.595 65.0864 119.627 64.8799C120.048 62.5178 119.368 60.0719 118.533 58.1357L118.54 58.1422Z" fill="white"/>
<path d="M87.9565 77.2258C84.1441 78.8909 80.5065 80.7431 79.8139 82.931C79.1214 85.1188 80.979 85.6093 80.979 85.6093C80.979 85.6093 79.076 85.5254 79.076 83.7829C79.076 82.0403 80.6554 79.362 87.9565 77.2258Z" fill="#37474F"/>
<path d="M90.7463 79.0718C91.18 79.0202 91.9567 78.7233 92.0214 78.207C92.0667 77.852 91.7561 77.781 91.4583 77.7875C91.0764 77.7875 90.6104 77.9488 90.3191 78.2005C89.8272 78.6265 90.1314 79.1492 90.7463 79.0718Z" fill="#37474F"/>
<path d="M91.4259 80.3497C91.8596 80.3755 92.6816 80.227 92.837 79.7301C92.947 79.3881 92.6557 79.2654 92.3645 79.2138C91.989 79.1493 91.5036 79.2138 91.167 79.4139C90.6039 79.743 90.811 80.3109 91.4259 80.3432V80.3497Z" fill="#37474F"/>
<path d="M88.8109 78.407C89.2122 78.3941 89.9566 78.2005 90.0666 77.7293C90.1378 77.4067 89.866 77.3163 89.5877 77.2905C89.2317 77.2582 88.7915 77.3615 88.5002 77.568C88.0083 77.9165 88.2413 78.4199 88.8109 78.407Z" fill="#37474F"/>
<path d="M89.1799 79.317C88.7268 78.891 88.0731 78.5102 86.0795 79.0782C84.0859 79.6461 83.3934 80.5625 83.8723 80.982C84.5714 81.5887 85.73 80.64 85.4646 82.0534C85.3157 82.8536 86.3773 83.4474 88.1831 82.0534C89.989 80.6593 89.6783 79.7816 89.1799 79.317Z" fill="#37474F"/>
<path d="M85.4321 75.593C85.8658 75.5414 86.6425 75.2445 86.7073 74.7282C86.7526 74.3733 86.4419 74.3023 86.1441 74.3087C85.7622 74.3087 85.2962 74.4701 85.0049 74.7218C84.513 75.1477 84.8172 75.6705 85.4257 75.593H85.4321Z" fill="#37474F"/>
<path d="M86.1118 76.8709C86.5455 76.8967 87.3675 76.7483 87.5229 76.2513C87.6329 75.9093 87.3416 75.7867 87.0504 75.735C86.675 75.6705 86.1895 75.735 85.8529 75.9351C85.2898 76.2643 85.4969 76.8322 86.1118 76.8644V76.8709Z" fill="#37474F"/>
<path d="M83.4968 74.9348C83.8981 74.9219 84.6425 74.7283 84.7525 74.2572C84.8237 73.9345 84.5519 73.8441 84.2736 73.8183C83.9176 73.786 83.4774 73.8893 83.1862 74.0958C82.6942 74.4443 82.9273 74.9477 83.4968 74.9348Z" fill="#37474F"/>
<path d="M83.8658 75.8384C83.4127 75.4125 82.759 75.0317 80.7654 75.5997C78.7719 76.1676 78.0793 77.084 78.5583 77.5035C79.2573 78.1102 80.4159 77.1615 80.1505 78.5748C80.0017 79.3751 81.0632 79.9689 82.869 78.5748C84.6749 77.1808 84.3642 76.3031 83.8658 75.8384Z" fill="#37474F"/>
<path d="M75.5356 93.4507C75.419 93.6701 75.1731 93.7927 74.9271 93.7733C70.7005 93.4442 65.0305 89.9204 62.7586 84.9962C60.4219 79.9365 62.299 73.999 63.1405 73.9474C63.9754 73.8957 62.2925 77.2581 63.2505 81.5305C64.1308 85.448 67.7554 90.3206 75.0436 91.5145C75.2831 91.5532 75.4773 91.7146 75.555 91.9405C75.6844 92.3212 75.8009 92.9279 75.5291 93.4442L75.5356 93.4507Z" fill="#37474F"/>
<path opacity="0.1" d="M112.714 83.2666C112.061 83.1504 111.711 83.4602 111.025 83.9829C110.417 84.4476 109.51 85.1382 108.921 85.6222C107.776 86.5709 106.475 87.3389 105.083 87.881C104.002 88.307 102.869 88.5974 101.711 88.7458C100.572 88.8878 99.3807 89.0233 98.2351 88.9072C97.7237 88.8555 97.1606 88.72 96.8952 88.2876C96.6299 87.8487 96.7787 87.2808 96.9535 86.7968C97.2901 85.8287 97.672 84.8736 97.8467 83.8668C97.9956 83.0084 98.0733 81.2143 97.2836 80.6076C96.9794 80.3753 96.5263 80.4463 96.2156 80.6722C95.8208 80.9626 95.5295 81.4789 95.2382 81.8661C94.3062 83.0794 93.3806 84.2992 92.6168 85.6222C92.0019 84.0281 90.8368 83.273 90.8368 83.273C93.2188 81.5305 93.0634 80.4721 93.0634 80.4721C91.7689 82.363 88.7527 83.2343 88.7527 83.2343C90.7139 84.3379 91.5294 85.9062 91.6006 87.5777C91.167 88.4619 90.7203 89.3267 90.099 90.0882C88.9921 91.4435 87.4064 92.347 85.7494 92.915C84.5649 93.3151 78.8107 93.8637 73.6002 94.2961C74.5776 95.8837 76.2346 97.5036 78.8884 99.0654C90.8304 106.119 106.455 98.5749 111.342 87.2873C111.938 85.9062 112.384 84.5767 112.734 83.2859C112.727 83.2859 112.721 83.2859 112.708 83.2795L112.714 83.2666Z" fill="black"/>
<path d="M68.0921 110.25C71.5032 109.733 74.8819 109.049 78.2412 108.249C86.2996 106.332 94.5522 103.777 101.931 99.9496C104.229 98.7556 106.436 97.3874 108.481 95.8063C109.472 95.0383 110.443 94.2961 111.148 93.2506C111.867 92.1921 112.533 91.0821 113.038 89.9011C113.672 88.3973 114.041 86.7581 113.899 85.1382C113.854 84.6412 113.666 84.0475 113.174 83.9636C112.52 83.8474 112.125 84.6993 111.757 85.093C111.239 85.648 110.727 86.1966 110.138 86.6806C108.993 87.6293 107.692 88.3973 106.3 88.9394C105.219 89.3654 104.086 89.6558 102.928 89.8042C101.789 89.9462 100.598 90.0818 99.452 89.9656C98.9407 89.914 98.3776 89.7784 98.1122 89.346C97.8468 88.9072 97.9957 88.3392 98.1705 87.8552C98.507 86.8871 98.8889 85.932 99.0637 84.9252C99.2126 84.0668 99.2902 82.2727 98.5006 81.666C98.1963 81.4337 97.7433 81.5047 97.4326 81.7306C97.0377 82.021 96.7465 82.5373 96.4552 82.9245C95.4455 84.2411 94.4293 85.5577 93.6396 87.0162C92.8823 88.4038 92.3257 89.9204 91.3289 91.1402C90.2221 92.4955 88.6363 93.399 86.9793 93.9669C85.0245 94.6317 70.5711 95.6901 66.7588 95.9676L57.5547 76.4514C57.5547 76.4514 52.7067 61.4077 44.7 59.9556C40.5187 62.3176 39.2954 64.3699 38.6805 68.9844C38.0656 73.5988 39.8585 77.5227 41.9427 83.7635C44.0269 90.0043 53.7488 104.938 56.4996 107.914C59.2505 110.889 60.7068 110.889 65.3671 110.579C66.2798 110.521 67.1924 110.392 68.0921 110.25Z" fill="#FFA8A7"/>
<path d="M188.231 162.022L134.98 131.366L81.73 162.022L134.98 192.677L188.231 162.022Z" fill="#FC5800"/>
<path opacity="0.4" d="M188.231 162.022L134.98 131.366L81.73 162.022L134.98 192.677L188.231 162.022Z" fill="white"/>
<path opacity="0.1" d="M188.231 162.022L134.98 131.366L81.73 162.022L134.98 192.677L188.231 162.022Z" fill="black"/>
<path opacity="0.1" d="M134.98 175.956V131.366L81.73 162.022V206.611L134.98 175.956Z" fill="black"/>
<path opacity="0.2" d="M134.98 175.956L81.73 206.611L134.98 237.26L188.231 206.611L134.98 175.956Z" fill="black"/>
<path d="M162.062 74.438C159.648 73.6958 158.353 74.1218 156.237 75.9095C154.12 77.6972 153.57 78.1425 153.382 80.3561C153.201 82.5633 153.842 87.2488 156.237 86.513C158.631 85.7773 162.062 74.438 162.062 74.438Z" fill="#996633"/>
<path d="M133.958 143.177C133.511 148.198 137.239 159.357 136.87 162.138C136.508 164.92 134.417 169.702 132.948 172.019C131.647 174.071 131.284 175.02 132.948 179.195C134.611 183.378 137.77 189.534 138.482 190.78C139.194 192.026 141.434 191.296 143.693 190.431C145.945 189.56 148.877 187.753 147.084 185.649C146.256 184.675 141.408 186.288 141.408 186.288C141.408 186.288 138.993 179.17 139.401 176.795C139.828 174.323 146.081 169.16 149.369 164.19C152.657 159.221 148.243 144.668 148.243 144.668L133.958 143.177Z" fill="#D49942"/>
<path opacity="0.55" d="M133.958 143.177C133.511 148.198 137.239 159.357 136.87 162.138C136.508 164.92 134.417 169.702 132.948 172.019C131.647 174.071 131.284 175.02 132.948 179.195C134.611 183.378 137.77 189.534 138.482 190.78C139.194 192.026 141.434 191.296 143.693 190.431C145.945 189.56 148.877 187.753 147.084 185.649C146.256 184.675 141.408 186.288 141.408 186.288C141.408 186.288 138.993 179.17 139.401 176.795C139.828 174.323 146.081 169.16 149.369 164.19C152.657 159.221 148.243 144.668 148.243 144.668L133.958 143.177Z" fill="black"/>
<path d="M172.658 107.501C172.548 107.042 172.425 106.604 172.295 106.184C173.072 109.037 170.179 116.917 164.787 122.996C159.389 129.082 161.758 133.703 163.162 140.176C162.314 135.729 162.58 134.284 163.861 130.637C166.424 123.332 174.781 122.99 172.651 107.501H172.658Z" fill="#D49942"/>
<path d="M191.389 96.1355C187.868 94.109 185.583 95.3675 182.651 98.3943C180.716 100.395 178.373 102.725 175.467 104.441C175.065 101.763 174.522 99.2139 174.438 97.949C174.269 95.5224 174.379 92.9667 175.997 91.0886C177.596 89.2364 178.302 88.1005 180.243 86.6743C180.955 86.1515 181.629 85.59 182.231 84.9511C182.8 84.338 183.901 82.7891 183.37 81.8985C182.315 82.6342 181.143 83.157 179.823 83.0472C179.344 83.0085 178.755 82.7762 178.379 82.4793C178.315 82.4277 178.25 82.3696 178.256 82.2857C178.263 82.1889 178.366 82.1373 178.457 82.1115C178.774 82.0082 179.111 81.9566 179.441 81.892C180.438 81.7049 181.428 81.3693 182.218 80.7368C182.787 80.285 183.24 79.6655 183.441 78.962C183.603 78.3941 183.473 78.3231 183.409 77.7487C183.357 77.2969 183.279 76.8452 183.104 76.4257C182.625 75.2834 181.622 74.98 180.554 74.4573C178.133 73.2762 177.285 74.5864 173.823 74.9478C171.214 75.2188 165.22 72.2694 160.567 75.1995C155.512 78.3812 155.175 83.57 154.211 88.7137C153.978 89.9657 153.66 91.0628 153.304 92.0567C151.796 95.4191 150.113 96.0903 147.958 102.996C144.78 113.167 145.537 118.717 139.984 126.423C134.974 133.374 133.647 138.711 133.634 142.474C133.615 148.908 134.773 150.65 140.042 155.187C143.841 158.453 145.654 159.008 149.375 164.19C150.579 165.862 150.67 172.471 149.77 175.446C148.877 178.421 148.081 179.905 148.974 182.242C149.867 184.578 154.081 194.323 155.615 196.698C157.156 199.08 158.838 198.466 163.952 196.937C168.962 195.44 166.58 192.297 164.787 192.497C162.994 192.697 160.237 193.407 160.237 193.407C160.237 193.407 156.58 184.817 156.58 182.706C156.58 180.596 160.936 171.825 164.386 167.191C167.835 162.558 166.509 155.181 164.386 145.817C162.262 136.452 162.159 135.497 163.861 130.631C165.479 126.023 169.395 124.184 171.538 119.569C174.198 118.407 176.709 117.278 177.706 115.91C179.732 113.122 183.907 106.165 185.648 103.809C187.998 100.634 189.622 98.8009 192.114 99.6915C194.399 100.505 194.697 99.9497 194.697 99.9497C195.014 98.7299 193.448 97.323 191.383 96.1355H191.389Z" fill="#D49942"/>
<path opacity="0.09" d="M191.363 96.1355C187.842 94.109 185.558 95.3675 182.625 98.3943C180.69 100.395 178.347 102.725 175.441 104.441C175.039 101.763 174.496 99.2139 174.412 97.949C174.243 95.5224 174.353 92.9667 175.972 91.0886C177.57 89.2364 178.276 88.1005 180.218 86.6743C180.93 86.1515 181.603 85.59 182.205 84.9511C182.774 84.338 183.875 82.7891 183.344 81.8985C182.289 82.6342 181.117 83.157 179.797 83.0472C179.318 83.0085 178.729 82.7762 178.353 82.4793C178.289 82.4277 178.224 82.3696 178.23 82.2857C178.237 82.1889 178.341 82.1373 178.431 82.1115C178.748 82.0082 179.085 81.9566 179.415 81.892C180.412 81.7049 181.402 81.3693 182.192 80.7368C182.761 80.285 183.214 79.6655 183.415 78.962C183.577 78.3941 183.447 78.3231 183.383 77.7487C183.331 77.2969 183.253 76.8452 183.079 76.4257C182.6 75.2834 181.596 74.98 180.528 74.4573C178.108 73.2762 177.26 74.5864 173.797 74.9478C171.188 75.2188 165.195 72.2694 160.541 75.1995C155.486 78.3812 155.149 83.57 154.185 88.7137C153.952 89.9657 153.634 91.0628 153.278 92.0567C151.77 95.4191 150.087 96.0903 147.932 102.996C144.754 113.167 145.511 118.717 139.958 126.423C134.948 133.374 133.621 138.711 133.608 142.474C133.589 148.908 134.747 150.65 140.016 155.187C143.816 158.453 145.628 159.008 149.35 164.19C150.554 165.862 150.644 172.471 149.744 175.446C148.851 178.421 148.055 179.905 148.948 182.242C149.842 184.578 154.055 194.323 155.589 196.698C157.13 199.08 158.813 198.466 163.926 196.937C168.936 195.44 166.554 192.297 164.761 192.497C162.968 192.697 160.211 193.407 160.211 193.407C160.211 193.407 156.554 184.817 156.554 182.706C156.554 180.596 160.91 171.825 164.36 167.191C167.81 162.558 166.483 155.181 164.36 145.817C162.237 136.452 162.133 135.497 163.835 130.631C165.454 126.023 169.369 124.184 171.512 119.569C174.172 118.407 176.684 117.278 177.68 115.91C179.706 113.122 183.881 106.165 185.622 103.809C187.972 100.634 189.596 98.8009 192.088 99.6915C194.373 100.505 194.671 99.9497 194.671 99.9497C194.988 98.7299 193.422 97.323 191.357 96.1355H191.363Z" fill="black"/>
<path d="M163.861 130.637C162.58 134.284 162.321 135.729 163.162 140.176C161.803 133.916 159.538 129.379 164.295 123.577C165.861 122.009 168.78 120.776 171.538 119.576C169.395 124.19 165.473 126.036 163.855 130.637H163.861Z" fill="#FAFAFA"/>
<path d="M136.171 143.145C134.411 145.229 132.016 145.546 125.608 149.502C119.757 153.109 118.32 160.312 120.876 164.868C123.071 168.786 125.537 171.774 125.938 174.484C126.592 178.918 124.417 180.777 124.417 180.777C124.417 180.777 128.682 179.305 129.453 176.195C129.453 176.195 130.288 179.989 126.767 183.887C126.767 183.887 134.942 185.753 136.611 177.13C137.9 170.502 135.925 166.649 131.835 163.022C128.689 160.234 127.278 155.504 132.016 151.832C137.608 147.495 138.217 145.236 138.217 145.236C138.217 145.236 138.605 143.183 136.178 143.151L136.171 143.145Z" fill="#996633"/>
<path d="M182.658 80.3237C184.101 80.427 184.897 80.9304 185.415 81.4273C185.933 81.9307 187.59 84.964 186.613 86.0095C185.635 87.055 183.15 86.3451 182.664 84.0411C182.664 84.0411 178.955 84.4864 177.713 83.015C176.47 81.5435 178.237 80.8981 179.894 80.6851C181.551 80.4722 182.664 80.3302 182.664 80.3302L182.658 80.3237Z" fill="#F28F8F"/>
<path d="M183.37 81.8985C183.37 81.8985 181.926 83.1182 182.244 84.0734C182.502 84.054 182.664 84.0411 182.664 84.0411C182.813 84.7317 183.137 85.2738 183.545 85.6739C184.036 86.0482 184.613 86.2999 185.247 86.2483C186.541 86.1451 185.92 85.0931 185.532 83.8927C185.143 82.6923 184.056 81.6403 183.37 81.9049V81.8985Z" fill="#874C4C"/>
<path d="M183.37 81.8984C183.894 82.7826 182.8 84.3315 182.231 84.9446C181.629 85.59 180.949 86.1515 180.244 86.6742C178.302 88.1005 177.59 89.2364 175.997 91.0886C174.386 92.9667 174.276 95.5223 174.438 97.9425C174.528 99.2074 175.072 101.757 175.473 104.435C175.266 104.558 175.059 104.68 174.839 104.79C173.784 101.331 172.198 98.1426 171.415 96.6453C170.14 94.1929 168.975 91.9276 170.522 87.9908C171.603 85.2609 171.311 83.4603 175.907 81.8533C180.017 80.4205 178.043 77.8455 176.8 77.1097C175.564 76.374 174.664 75.3285 175.227 74.7283C177.214 74.0829 178.735 73.5344 180.431 74.3604C181.506 74.8832 182.632 75.2833 183.104 76.4192C183.286 76.8387 183.363 77.2905 183.415 77.7422C183.473 78.3166 183.603 78.3876 183.447 78.962C183.247 79.659 182.794 80.2785 182.224 80.7303C181.434 81.3628 180.438 81.6919 179.441 81.8855C179.111 81.9501 178.781 81.9953 178.457 82.105C178.366 82.1372 178.269 82.1889 178.263 82.2857C178.263 82.3631 178.321 82.4277 178.379 82.4728C178.761 82.7697 179.357 82.8794 179.836 82.8923C181.299 82.944 182.321 82.6277 183.376 81.8855L183.37 81.8984Z" fill="#FAFAFA"/>
<path d="M179.952 75.2446C179.952 75.2446 179.926 75.2252 179.92 75.2123C179.771 75.0832 179.661 74.9219 179.493 74.8186C179.279 74.696 179.02 74.696 178.794 74.6186C178.612 74.5605 178.399 74.3798 178.444 74.1668C178.47 74.0442 178.573 73.9796 178.677 73.928C179.052 73.7279 179.395 73.4892 179.836 73.4569C180.341 73.4182 180.839 73.5731 181.298 73.7796C182.593 74.354 183.176 74.7154 183.447 75.1542C183.719 75.5931 183.266 77.0645 183.266 77.071C183.311 76.9161 183.15 76.5741 183.091 76.4385C182.748 75.6641 181.706 75.6899 181.007 75.6124C180.632 75.5737 180.25 75.4834 179.959 75.251L179.952 75.2446Z" fill="#263238"/>
<path opacity="0.1" d="M174.431 97.9489C174.263 95.5223 174.373 92.9666 175.991 91.0886C177.59 89.2364 178.295 88.1005 180.237 86.6742C180.496 86.4871 180.748 86.287 180.994 86.0869C177.629 88.4167 174.923 87.2292 173.091 88.791C171.253 90.3593 172.509 94.2574 173.758 96.1483C174.004 96.5162 174.431 97.9425 174.431 97.9425V97.9489Z" fill="black"/>
<path d="M166.165 81.9889C166.936 80.924 170.386 78.4006 171.926 77.7939C173.467 77.1873 176.224 80.7691 176.217 83.7185C176.217 86.6614 174.166 92.3601 171.894 92.2052C169.622 92.0503 167.318 83.6281 166.263 84.6156C165.272 85.5449 164.761 83.9379 166.159 81.9953L166.165 81.9889Z" fill="#996633"/>
<path d="M134.98 237.26L188.231 206.611V162.022L134.98 192.677V237.26Z" fill="#FC5800"/>
<path opacity="0.6" d="M134.98 237.26L188.231 206.611V162.022L134.98 192.677V237.26Z" fill="white"/>
<path opacity="0.1" d="M134.98 192.677L144.625 212.148L188.231 187.101V162.022L134.98 192.677Z" fill="black"/>
<path d="M134.98 237.266L81.73 206.611V162.022L134.98 192.677V237.266Z" fill="#FC5800"/>
<path opacity="0.4" d="M134.98 237.266L81.73 206.611V162.022L134.98 192.677V237.266Z" fill="white"/>
<path opacity="0.1" d="M134.98 192.677L125.343 212.148L81.73 187.101V162.022L134.98 192.677Z" fill="black"/>
<path opacity="0.1" d="M85.3611 196.782V201.99C85.3611 203.629 86.5132 205.624 87.9437 206.443L99.7303 213.226C101.154 214.046 102.313 213.381 102.313 211.742V206.534C102.313 204.894 101.154 202.9 99.7303 202.08L87.9501 195.298C86.5262 194.478 85.3676 195.143 85.3676 196.782H85.3611Z" fill="black"/>
<path d="M81.7299 162.022L69.6326 177.35L122.922 207.966L134.98 192.677L81.7299 162.022Z" fill="#FC5800"/>
<path opacity="0.6" d="M81.7299 162.022L69.6326 177.35L122.922 207.966L134.98 192.677L81.7299 162.022Z" fill="white"/>
<path d="M188.231 162.022L200.335 177.35L147.045 207.966L134.98 192.677L188.231 162.022Z" fill="#FC5800"/>
<path opacity="0.4" d="M188.231 162.022L200.335 177.35L147.045 207.966L134.98 192.677L188.231 162.022Z" fill="white"/>
<path d="M109.439 164.707C110.553 167.927 115.834 169.399 119.401 175.627C121.938 180.06 120.883 184.552 120.883 184.552L89.756 166.63L87.6329 161.815L109.446 164.694L109.439 164.707Z" fill="#F0F0F0"/>
<path d="M78.0017 172.245C78.0599 170.773 78.9596 168.786 80.1182 167.153C82.0471 164.429 84.8303 162.745 87.633 161.828L94.8435 166.32C87.1346 166.062 84.4873 170.109 83.7688 172.361C83.2769 173.923 82.8626 175.123 81.95 175.123C81.0568 175.123 80.9662 174.342 80.9662 174.342C80.3318 174.936 79.3933 174.587 79.3545 173.819C79.005 173.974 78.6554 173.929 78.3836 173.645C78.0276 173.271 77.9823 172.755 78.0017 172.232V172.245Z" fill="#F0F0F0"/>
<path d="M78.3771 173.652C78.3771 173.652 78.3706 173.639 78.3641 173.632C78.6683 173.736 78.9467 173.613 79.102 173.232C79.348 172.645 79.4192 172.367 79.5551 172.238C79.5551 172.238 79.2768 173.155 79.348 173.819C78.9985 173.974 78.6489 173.929 78.3771 173.645V173.652Z" fill="#E0E0E0"/>
<path d="M79.8982 174.587C80.2671 174.575 80.5519 174.31 80.6814 173.865C80.8626 173.245 80.9791 173.051 81.1086 172.922C81.1086 172.922 80.882 173.677 80.9532 174.349C80.6296 174.658 80.2154 174.71 79.8917 174.587H79.8982Z" fill="#E0E0E0"/>
<path d="M91.892 178.57C92.0409 177.066 92.8629 174.878 94.0733 173.226C96.138 170.406 97.7562 169.083 100.255 167.688V165.727C100.255 165.727 109.271 167.566 109.439 173.529C101.588 172.806 98.6365 176.782 97.7691 179.047C97.1737 180.609 96.6753 181.816 95.7432 181.758C94.8306 181.706 94.7853 180.906 94.7853 180.906C94.1056 181.474 93.1671 181.061 93.1671 180.273C92.8046 180.409 92.4486 180.344 92.1897 180.041C91.8467 179.634 91.8337 179.105 91.8855 178.576L91.892 178.57Z" fill="#F0F0F0"/>
<path d="M92.1897 180.034C92.1897 180.034 92.1832 180.022 92.1768 180.015C92.481 180.138 92.7722 180.028 92.9535 179.654C93.2383 179.066 93.3289 178.795 93.4713 178.666C93.4713 178.666 93.1282 179.583 93.1671 180.273C92.8046 180.409 92.4486 180.344 92.1897 180.041V180.034Z" fill="#E0E0E0"/>
<path d="M93.6914 181.074C94.0668 181.08 94.3775 180.828 94.5329 180.383C94.7594 179.764 94.8824 179.57 95.0248 179.447C95.0248 179.447 94.7464 180.209 94.7853 180.899C94.4358 181.196 94.015 181.222 93.6914 181.08V181.074Z" fill="#E0E0E0"/>
<path d="M87.6394 161.828H87.6265C87.154 161.983 86.688 162.164 86.2219 162.364C88.8563 165.107 92.3709 166.946 95.083 167.856C98.4746 168.992 103.536 169.657 108.022 168.037C109.019 167.675 109.841 167.114 110.514 166.411C110.106 165.952 109.776 165.488 109.556 164.978" fill="#E0E0E0"/>
<path d="M97.7691 146.326C96.6364 143.538 92.3968 140.234 89.1411 141.538C87.3029 142.274 88.6039 149.127 88.6039 149.127C88.6039 149.127 94.7464 149.121 97.7756 146.32L97.7691 146.326Z" fill="#E0E0E0"/>
<path d="M95.0377 147.953C92.0344 149.127 88.5974 149.134 88.5974 149.134C88.5974 149.134 87.3029 142.28 89.1347 141.544C90.3386 141.267 93.4325 142.893 95.0377 147.953Z" fill="#FFA8A7"/>
<path d="M90.8953 145.713C91.1218 144.92 90.494 143.977 90.494 143.977C91.6202 143.887 93.1801 144.926 93.4584 146.778C93.4584 146.778 91.7885 149.883 89.3224 148.605C89.1735 148.146 88.5586 147.63 88.3386 147.372C88.2803 146.894 88.2285 146.359 88.1962 145.81C89.3936 145.442 90.9017 145.713 90.9017 145.713H90.8953Z" fill="#F28F8F"/>
<path d="M106.119 148.792C108.624 147.114 113.996 146.765 115.957 149.67C117.058 151.309 111.316 156.872 111.316 156.872C111.316 156.872 107.051 152.806 106.119 148.792Z" fill="#E0E0E0"/>
<path d="M107.459 151.664C109.278 154.316 111.31 156.872 111.31 156.872C111.31 156.872 117.051 151.309 115.951 149.67C115.109 148.766 111.634 148.372 107.452 151.664H107.459Z" fill="#FFA8A7"/>
<path d="M111.077 155.523C111.414 155.265 111.737 155.104 112.035 155.007C112.378 154.645 112.773 154.219 113.168 153.755C112.384 152.78 110.98 152.154 110.98 152.154C111.239 151.373 112.294 150.941 112.294 150.941C111.414 150.237 109.401 150.399 108.417 151.793C108.417 151.793 108.384 152.864 108.85 153.858C109.284 154.368 109.685 154.813 110.022 155.175C110.32 155.342 110.663 155.471 111.083 155.517L111.077 155.523Z" fill="#F28F8F"/>
<path d="M95.4778 166.656C98.507 167.669 103.018 168.263 107.012 166.817C111.776 165.094 112.041 158.214 110.889 155.091C109.737 151.967 107.355 148.831 101.912 147.004C96.4681 145.184 92.6816 146.262 89.8919 148.063C87.1022 149.863 83.1992 155.523 85.976 159.776C88.3061 163.339 92.4422 165.643 95.4713 166.656H95.4778Z" fill="#F5F5F5"/>
<path d="M95.5038 165.94C89.4713 163.92 89.7884 160.189 91.316 158.653C92.8435 157.117 95.3679 156.698 98.2546 157.659C101.141 158.627 102.908 160.486 103.213 162.635C103.517 164.784 101.536 167.96 95.5038 165.94Z" fill="#020201"/>
<path d="M97.193 160.86L98.6105 160.641C98.7206 160.622 98.7918 160.518 98.7853 160.409C98.7788 160.299 98.6753 160.222 98.5717 160.234L97.3354 160.422L96.4422 159.537C96.3645 159.46 96.2416 159.466 96.1639 159.55C96.0862 159.634 96.0927 159.763 96.1639 159.841L97.193 160.854V160.86Z" fill="#455A64"/>
<path d="M98.2157 163.907C98.4552 163.9 98.6882 163.836 98.9083 163.713C99.2966 163.506 99.5879 163.151 99.7303 162.726C99.7627 162.616 99.7109 162.5 99.6138 162.467C99.5102 162.435 99.4002 162.493 99.3614 162.603C99.2513 162.926 99.0313 163.197 98.74 163.352C98.4487 163.506 98.1186 163.539 97.8144 163.435C97.5102 163.332 97.2642 163.113 97.1218 162.809C96.9794 162.506 96.9665 162.164 97.07 161.835L97.4455 160.706C97.4843 160.596 97.426 160.48 97.3289 160.447C97.2254 160.415 97.1154 160.473 97.083 160.583L96.7076 161.712C96.5652 162.145 96.5846 162.596 96.7723 162.997C96.96 163.397 97.2836 163.694 97.6849 163.829C97.8597 163.887 98.0409 163.913 98.2222 163.907H98.2157Z" fill="#455A64"/>
<path d="M95.5555 163.016C95.795 163.009 96.028 162.945 96.2481 162.822C96.6364 162.616 96.9277 162.261 97.0701 161.835L97.4455 160.706C97.4843 160.596 97.4261 160.48 97.329 160.447C97.2254 160.415 97.1154 160.473 97.083 160.583L96.7076 161.712C96.5976 162.035 96.3775 162.306 96.0862 162.461C95.795 162.616 95.4649 162.648 95.1607 162.545C94.5263 162.332 94.1962 161.615 94.4228 160.944C94.4551 160.835 94.4034 160.718 94.3063 160.686C94.2027 160.654 94.0927 160.712 94.0538 160.822C93.7561 161.712 94.1962 162.661 95.0312 162.939C95.206 162.997 95.3872 163.022 95.5684 163.016H95.5555Z" fill="#455A64"/>
<path d="M91.3483 154.594C91.0894 155.375 91.4713 156.201 92.2092 156.446C92.9406 156.691 93.7432 156.259 94.0021 155.478C94.261 154.697 93.8791 153.871 93.1412 153.626C92.4098 153.381 91.6072 153.813 91.3483 154.594Z" fill="#00C8DD"/>
<path d="M105.614 159.363C105.355 160.144 104.552 160.577 103.821 160.331C103.09 160.086 102.701 159.254 102.96 158.479C103.219 157.698 104.022 157.266 104.753 157.511C105.484 157.756 105.873 158.589 105.614 159.363Z" fill="#00C8DD"/>
<path d="M109.472 161.532C109.549 161.532 109.621 161.493 109.679 161.435C110.753 160.247 112.572 159.002 115.103 159.834C115.258 159.886 115.42 159.796 115.478 159.634C115.53 159.473 115.452 159.299 115.297 159.247C112.475 158.318 110.462 159.699 109.265 161.015C109.148 161.138 109.155 161.338 109.265 161.448C109.323 161.506 109.394 161.532 109.472 161.525V161.532Z" fill="#455A64"/>
<path d="M110.119 162.28C110.171 162.28 110.222 162.261 110.274 162.229C111.245 161.564 113.012 161.499 113.944 161.887C114.093 161.951 114.268 161.867 114.326 161.712C114.391 161.551 114.326 161.377 114.171 161.312C113.109 160.867 111.116 160.925 109.964 161.712C109.828 161.809 109.782 161.996 109.866 162.138C109.925 162.229 110.015 162.28 110.119 162.274V162.28Z" fill="#455A64"/>
<path d="M114.65 164.707C114.734 164.707 114.818 164.662 114.876 164.591C114.98 164.455 114.967 164.262 114.844 164.158C113.109 162.681 110.857 162.474 109.504 162.906C109.349 162.958 109.258 163.126 109.297 163.294C109.342 163.455 109.504 163.545 109.653 163.5C110.863 163.113 112.889 163.307 114.462 164.642C114.514 164.688 114.585 164.713 114.65 164.707Z" fill="#455A64"/>
<path d="M87.5489 154.284C87.5489 154.284 87.5683 154.284 87.5812 154.284C87.7431 154.265 87.8596 154.11 87.8466 153.936C87.6848 152.161 86.8951 149.844 84.0796 148.889C83.9307 148.837 83.7624 148.928 83.7041 149.089C83.6524 149.25 83.73 149.424 83.8789 149.476C86.4032 150.334 87.1087 152.419 87.2576 154.02C87.2706 154.181 87.4 154.291 87.5489 154.284Z" fill="#455A64"/>
<path d="M86.5844 154.484C86.6168 154.484 86.6491 154.478 86.6815 154.465C86.8368 154.4 86.9145 154.226 86.8627 154.065C86.4097 152.742 84.8562 151.496 83.7365 151.212C83.5811 151.174 83.4193 151.277 83.374 151.438C83.3287 151.606 83.4193 151.767 83.5746 151.812C84.552 152.064 85.9242 153.174 86.3061 154.291C86.3514 154.413 86.4614 154.491 86.5844 154.484Z" fill="#455A64"/>
<path d="M86.2867 155.801C86.3449 155.801 86.4097 155.775 86.4615 155.736C86.5909 155.633 86.6233 155.44 86.5262 155.304C85.7041 154.142 83.7882 152.955 81.5034 153.084C81.3416 153.09 81.2121 153.239 81.2186 153.407C81.2186 153.574 81.3545 153.703 81.5099 153.697C81.5099 153.697 81.5099 153.697 81.5164 153.697C83.5876 153.574 85.3093 154.639 86.0472 155.678C86.1055 155.756 86.1961 155.801 86.2867 155.794V155.801Z" fill="#455A64"/>
<path d="M93.7043 146.552C93.4389 145.339 92.2868 143.848 91.1606 143.848C91.1606 143.848 91.7108 144.842 91.426 145.616C91.426 145.616 88.5456 144.861 87.51 146.191C87.51 146.191 89.1476 146.643 89.5683 148.379C91.9244 149.844 93.7043 146.552 93.7043 146.552Z" fill="#F5F5F5"/>
<path d="M108.721 151.793C109.692 151.012 111.323 150.812 112.203 151.515C112.203 151.515 111.148 151.948 110.889 152.729C110.889 152.729 113.608 153.929 113.588 155.62C113.588 155.62 112.345 155.039 110.928 156.13C108.171 155.801 108.721 151.793 108.721 151.793Z" fill="#F5F5F5"/>
<path d="M144.469 174.484C144.405 174.968 143.958 175.31 143.466 175.252C142.974 175.188 142.631 174.736 142.696 174.245C143.032 171.709 142.087 169.799 140.107 169.018C138.268 168.295 135.563 168.74 133.951 170.986C132.851 172.522 132.941 174.297 133.052 176.349C133.194 178.924 133.349 181.848 130.993 184.688C129.789 186.14 127.945 187.043 126.003 187.508L123.53 186.088C125.796 185.94 128.294 185.146 129.615 183.552C131.524 181.248 131.395 178.911 131.265 176.446C131.149 174.252 131.019 171.993 132.495 169.947C134.398 167.308 137.867 166.223 140.767 167.366C142.903 168.211 144.994 170.528 144.469 174.491V174.484Z" fill="#F0F0F0"/>
<path d="M93.0236 155.168C93.3069 154.402 93.4061 153.733 93.2451 153.674C93.0842 153.615 92.724 154.187 92.4406 154.953C92.1573 155.719 92.0581 156.388 92.2191 156.447C92.3801 156.506 92.7403 155.933 93.0236 155.168Z" fill="black"/>
<path d="M104.642 159.049C104.926 158.283 105.025 157.614 104.864 157.555C104.703 157.496 104.343 158.068 104.06 158.834C103.776 159.6 103.677 160.269 103.838 160.328C103.999 160.387 104.359 159.814 104.642 159.049Z" fill="black"/>
<path d="M36.0396 31.2362C35.7095 30.3585 35.0817 29.6873 34.3114 29.2807L34.292 29.2678C33.3988 28.8031 32.3114 28.6999 31.2887 29.0806C29.5346 29.7325 28.8032 32.1914 29.2239 33.9597C28.3695 32.3527 26.2012 30.978 24.4471 31.6363C23.4245 32.0171 22.6736 32.8045 22.3047 33.7467V33.7661C21.994 34.5728 21.9616 35.4957 22.2917 36.3669C23.3144 39.084 26.4019 39.639 29.1916 40.6264L32.1237 41.659L33.6512 38.9549C35.1011 36.3799 37.0623 33.9403 36.0396 31.2233V31.2362Z" fill="#FC5800"/>
<path d="M187.234 51.3912C186.904 50.5135 186.276 49.8423 185.506 49.4357L185.486 49.4228C184.593 48.9582 183.506 48.8549 182.483 49.2357C180.729 49.8875 179.998 52.3464 180.418 54.1147C179.564 52.5077 177.396 51.1331 175.641 51.7914C174.619 52.1721 173.868 52.9595 173.499 53.9017V53.9211C173.188 54.7278 173.156 55.6507 173.486 56.522C174.509 59.239 177.596 59.794 180.386 60.7815L183.318 61.8141L184.846 59.1099C186.295 56.5349 188.257 54.0954 187.234 51.3783V51.3912Z" fill="#FC5800"/>
<path d="M115.303 34.9664C115.705 34.1339 115.75 33.2239 115.517 32.4043V32.3849C115.239 31.4298 114.566 30.5908 113.595 30.1261C111.925 29.3258 109.672 30.494 108.695 32.0042C109.258 30.2939 108.753 27.8157 107.083 27.0219C106.112 26.5572 105.031 26.5636 104.112 26.9444H104.093V26.9573C103.303 27.2929 102.624 27.8996 102.229 28.7321C100.992 31.3136 102.708 33.8887 103.912 36.5476L105.18 39.3356L108.158 38.5676C110.986 37.8319 114.074 37.5479 115.31 34.9664H115.303Z" fill="#FC5800"/>
<path d="M268.33 36.7606C268.731 35.9281 268.776 35.0181 268.543 34.1985V34.1791C268.265 33.224 267.592 32.385 266.621 31.9203C264.951 31.12 262.698 32.2882 261.721 33.7983C262.284 32.0881 261.779 29.6099 260.109 28.816C259.138 28.3514 258.058 28.3578 257.138 28.7386H257.119V28.7515C256.329 29.0871 255.65 29.6938 255.255 30.5263C254.019 33.1078 255.734 35.6829 256.938 38.3418L258.206 41.1298L261.184 40.3618C264.012 39.6261 267.1 39.3421 268.336 36.7606H268.33Z" fill="#FC5800"/>
</g>
<defs>
<clipPath id="clip0_16_317">
<rect width="290" height="251" fill="white"/>
</clipPath>
</defs>
</svg>
