<svg width="289" height="95" viewBox="0 0 289 95" fill="none" xmlns="http://www.w3.org/2000/svg">
<path d="M10.4361 64.4615C8.49672 61.9846 6.75409 59.3166 5.47523 56.4292C3.95746 52.7138 3.15641 48.7649 2.95264 44.7735C3.34613 44.08 5.73522 39.8692 7.34433 37.8665C9.10101 35.6797 11.469 31.5114 10.6118 26.968C10.0215 23.8542 9.35398 22.0496 8.98859 21.2216C9.4383 20.6271 9.92314 20.0539 10.4431 19.509C11.4339 18.5465 12.5019 17.5487 13.8581 17.1524C15.0597 16.7773 16.465 17.0179 17.3996 17.8813C18.826 19.3179 18.3482 21.5825 17.6947 23.2881C16.6828 25.772 15.158 28.0013 13.9424 30.3862C11.0896 35.8354 8.74968 41.7375 8.48266 47.9581C8.41942 51.44 8.58806 55.12 10.0637 58.3187C10.1199 58.4037 10.1761 58.4674 10.2393 58.524C10.2464 60.6329 11.1739 62.6852 12.256 64.4615C13.823 66.9596 15.7975 69.1747 17.1677 71.8002C17.2239 71.8993 17.2731 72.0055 17.3223 72.1046C15.1229 69.4649 12.5722 67.1507 10.4291 64.4615H10.4361Z" fill="black"/>
<path d="M70.7954 62.0341C68.6171 68.1698 64.8649 73.6544 60.2132 78.1624C56.5944 77.6245 45.6749 76.2587 39.119 78.3534C32.556 80.4482 25.8806 87.9072 23.7656 90.4337C22.1916 89.634 20.6738 88.6999 19.3739 87.4968C18.0529 86.2937 16.9356 84.8925 15.8535 83.47C14.413 81.5239 12.9936 79.4008 12.4596 77.0017C12.0661 74.6805 14.1882 74.5461 15.5022 75.8907C16.8091 77.0937 17.7086 78.8063 19.3528 79.5919C21.9949 80.8303 24.2223 78.219 26.2039 76.8248C28.6562 74.9777 31.3263 73.3359 34.2495 72.3593C37.4888 71.411 41.0724 71.8002 44.0447 73.3925C45.2322 74.0507 46.4197 74.7725 47.3332 75.7987C47.6564 76.1879 47.7056 76.7187 48.331 76.7328C48.8088 76.7611 49.2164 76.3224 49.1742 75.8482C49.132 75.3104 48.6331 74.7442 48.2467 74.3479C45.1198 71.3968 40.7281 69.8328 36.4488 70.2575C31.9658 70.7245 28.0378 73.3713 24.5245 76.0534C23.4353 76.846 22.3954 77.8793 21.0814 78.2614C21.0111 78.2614 20.9409 78.2685 20.8706 78.2614C20.7301 76.754 20.3717 75.2679 19.8658 73.8384C18.7274 70.5405 16.5913 67.7664 14.5747 64.9781C13.5277 63.4849 12.4807 61.7652 12.0661 59.9322C11.7499 58.6372 11.7288 56.047 13.3731 55.7215C15.0736 56.2381 15.6357 58.7292 16.1908 60.2295C16.5211 61.1212 16.76 62.1898 17.6102 62.7347C18.2707 63.1593 19.1701 62.9116 19.655 62.3313C20.7441 60.8664 21.8332 59.359 23.344 58.2975C26.0212 56.3726 29.4572 55.6012 32.6965 56.2169C33.8419 56.4009 34.9029 56.868 35.8445 57.519C35.8164 57.4836 35.7883 57.4483 35.7602 57.4129C35.7461 57.3916 35.7391 57.3704 35.7251 57.3492C35.7602 57.4129 35.8024 57.4695 35.8515 57.5261C35.9569 57.5969 36.0553 57.6747 36.1607 57.7526C36.4769 57.8799 36.7861 57.795 36.9969 57.6039C37.6363 57.3775 38.339 56.4363 38.8238 56.0258C41.2481 53.655 42.8572 50.5341 43.7566 47.2787C45.97 38.9138 41.2059 30.2022 35.8726 24.0453C35.5213 23.6419 35.1489 23.2527 34.7765 22.8705C34.5586 22.644 34.3267 22.4388 34.1159 22.2053C33.9824 22.0567 33.4765 21.5754 33.7365 21.3844C34.3197 20.9456 35.2964 21.2074 35.9288 21.3702C37.1234 21.6745 38.2687 22.1557 39.4 22.644C39.8568 22.8422 40.3205 23.0403 40.7773 23.2314C41.1005 23.3659 41.4378 23.5287 41.7821 23.6136C43.2437 24.1443 44.4522 22.7714 45.5203 21.9647C46.9046 20.8182 48.2748 19.6647 49.6661 18.5324C50.3617 17.9733 51.0784 17.4142 51.8233 16.8551C51.9076 16.7844 51.9989 16.7136 52.0973 16.6499C52.0973 16.6499 59.1873 20.5422 64.6189 17.0887C66.6286 19.9619 68.2588 23.1182 69.5517 26.3736C71.0273 30.2942 72.2991 34.3209 73.0299 38.4538C73.1704 39.3101 73.2899 40.1665 73.3883 41.0298C73.4796 41.4261 73.4023 41.9144 73.5077 42.3178C73.5077 42.3603 73.5077 42.4098 73.5077 42.4523C73.5499 43.6483 73.5639 44.8514 73.578 46.0474C73.6272 51.4824 72.5591 56.9104 70.8095 62.0482L70.7954 62.0341Z" fill="black"/>
<path d="M35.8805 55.686C35.8805 55.686 35.8805 55.686 35.873 55.686C35.8954 55.7084 35.9102 55.7308 35.9325 55.7457C35.9177 55.7308 35.9028 55.7084 35.8805 55.6935V55.686Z" fill="white"/>
<path d="M49.1535 41.4122C48.3876 41.3768 47.3195 41.5113 47.5374 42.5374C47.8184 43.4504 48.8092 42.9833 49.4908 43.0753C52.2172 43.1602 54.4798 45.0922 55.33 47.654C56.0046 49.5648 55.9202 51.6313 55.85 53.6269C55.7305 56.21 55.1824 58.9063 53.5803 60.994C53.4047 61.1992 53.222 61.3832 53.0323 61.546C53.0463 60.3429 52.7863 58.6516 52.7161 58.0571C52.4069 57.0734 50.9664 57.3989 51.114 58.418C51.2826 59.6777 51.4161 60.9445 51.3599 62.2112C51.3599 62.2608 51.3599 62.3032 51.3669 62.3457C50.9242 62.4306 50.4745 62.4235 50.0389 62.3174C50.1373 60.9232 50.1232 59.5291 50.0248 58.142C50.0037 57.1371 48.5562 57.038 48.3946 58.0217C48.3665 58.5525 48.4649 59.0974 48.4579 59.6352C48.4719 60.2368 48.4719 60.8312 48.4508 61.4328C48.1557 61.1497 47.8957 60.8029 47.6779 60.3925C47.0033 59.1115 47.0033 57.6254 47.0314 56.2171C47.1087 54.1789 47.3055 52.1266 47.0525 50.0885C46.8769 49.0128 45.3029 49.2534 45.4223 50.3291C45.6683 52.2753 45.4504 54.2426 45.3872 56.1888C45.2959 58.3048 45.5137 60.6118 46.9752 62.2608C47.7482 63.1383 48.7811 63.8106 49.9405 64.0017C53.2571 64.5749 55.6251 61.7512 56.5526 58.8497C57.3115 56.7762 57.5083 54.5469 57.5364 52.3531C57.5434 51.1854 57.5364 50.0106 57.3396 48.85C56.6721 44.6676 53.496 41.3768 49.1605 41.3981L49.1535 41.4122Z" fill="white"/>
<path d="M71.6248 47.9086C70.6059 47.4132 70.2545 48.779 69.8962 49.4584C68.9616 51.5815 68.8 53.931 68.3714 56.1885C68.0692 57.8091 67.6125 59.4298 66.7131 60.8239C66.685 60.8734 66.6498 60.9159 66.6217 60.9654C66.6007 60.2011 66.5866 59.4298 66.5585 58.6654C66.5444 58.2691 66.5023 57.8799 66.4882 57.4836C66.5163 57.2642 66.4531 57.0307 66.3126 56.8538C65.8066 56.2168 64.7878 56.6556 64.844 57.4553C64.9423 59.0405 64.9634 60.6328 65.0126 62.2251C65.0126 62.2747 65.0197 62.3242 65.0267 62.3667C64.5559 62.5648 64.071 62.6073 63.5932 62.4799C63.6213 62.395 63.6354 62.303 63.6284 62.2039C63.5862 61.0291 63.5932 59.8544 63.5792 58.6796C63.5792 58.3045 63.5862 57.9436 63.5651 57.5685C63.3895 56.5495 61.9138 56.691 61.9279 57.7101C61.9279 58.8707 61.9419 60.0313 61.956 61.1919C60.0447 58.3965 60.6631 52.6925 61.1901 49.4513C61.6538 46.6559 62.6376 43.8181 64.7807 41.879C65.8347 40.8953 67.1347 39.9753 68.6103 39.8833C69.5308 40.0107 69.9805 38.6024 68.9195 38.2627C65.364 38.0363 61.7311 42.0984 60.6069 45.2476C59.4194 48.5313 59.0329 52.0698 59.054 55.5516C59.0118 58.8848 59.855 63.4777 63.6916 64.2067C65.5677 64.4544 67.2612 63.1239 68.1887 61.5811C69.7767 59.083 70.0367 56.0611 70.5426 53.2021C70.7464 52.091 71.0134 50.9799 71.4842 49.9538C71.7794 49.2956 72.4961 48.4676 71.6248 47.9227V47.9086Z" fill="white"/>
<path d="M75.2298 43.2591C75.2157 42.2046 75.1947 41.1431 75.1525 40.0886C75.1525 40.0178 75.1525 39.9471 75.1455 39.8763C75.1455 39.8268 75.1455 39.7772 75.1455 39.7348C75.1455 39.6357 75.1314 39.5437 75.1033 39.4588C75.0611 39.1474 75.012 38.8501 75.0049 38.6024C74.5833 34.9862 73.6558 31.4477 72.5456 27.9871C70.6835 22.2406 68.0977 16.6145 64.233 11.9438C62.6941 10.0967 54.1848 1.07363 52.0135 3.77701C51.4935 4.53423 51.9081 8.92899 51.9573 10.2311C51.9714 11.1016 52.1049 11.9791 51.9995 12.8496C50.025 14.3216 48.2191 15.7441 46.3008 17.3576C45.0992 18.3059 43.996 19.4311 42.661 20.1954C42.4712 20.3087 42.2745 20.1742 42.0918 20.1105C41.5789 19.9053 41.0659 19.693 40.553 19.4736C38.3957 18.681 34.3694 16.4588 32.4511 18.504C32.0366 18.957 31.9171 19.693 32.1279 20.2874C32.2052 20.988 33.1257 21.54 33.5333 22.0779C35.4024 23.9957 37.0607 26.1259 38.4871 28.3905C40.7497 32.0988 42.5204 36.2883 42.7312 40.676C42.8155 44.2498 41.5437 47.7387 39.6465 50.711C38.726 51.992 37.7282 53.0606 36.5266 54.1363C34.9105 52.9544 32.7533 52.6147 30.7928 52.5227C25.5228 52.4095 21.3138 55.0987 18.4328 59.4156C17.4351 57.5402 17.2383 55.2332 15.7908 53.5984C14.1044 51.447 11.9402 52.0627 10.9143 53.9027C10.3662 51.9141 10.2256 49.8123 10.1554 47.76C10.05 42.2471 11.7926 36.8969 14.1325 31.9714C15.1303 29.8342 16.2686 27.7748 17.4351 25.7366C18.9107 23.104 20.6041 20.068 19.8101 16.94C19.3393 15.1142 17.688 13.7837 15.847 13.5502C13.2471 13.1185 10.9283 14.817 9.22785 16.6145C5.65126 20.3794 3.67675 25.3616 2.55247 30.3791C0.46554 39.2677 0.78877 49.1046 5.01885 57.3279C6.87391 60.7532 9.19975 63.9307 11.891 66.7402C13.6196 68.5378 15.3481 70.3494 16.901 72.3097C17.4351 73.0104 18.0745 73.895 18.4399 74.8008C18.0885 74.3691 17.7513 73.9304 17.3999 73.5907C16.901 73.0387 16.36 72.522 15.7346 72.1187C13.9849 71.0501 11.5467 71.4605 10.9635 73.6402C10.6262 74.8999 10.9845 76.2445 11.4905 77.4122C12.4601 79.6627 13.8022 81.7291 15.3552 83.6186C17.2805 86.1946 19.7187 88.3389 22.5505 89.8322C26.0779 91.2617 28.2421 91.3042 29.9637 91.4174C41.1994 92.1039 51.8941 86.3503 59.9959 78.87C66.9172 72.6565 71.9975 64.5393 73.9509 55.3393C74.8995 51.3904 75.3563 47.3424 75.2509 43.2661L75.2298 43.2591ZM33.4349 19.5656C33.4349 19.5656 33.4279 19.5656 33.4208 19.5585C33.4489 19.5727 33.4841 19.5939 33.5122 19.608C33.5262 19.6151 33.5333 19.6293 33.5473 19.6363C33.5122 19.608 33.47 19.5868 33.4279 19.5656H33.4349ZM10.4646 62.6285C8.52518 60.1516 6.78255 57.4836 5.50369 54.5963C3.98592 50.8809 3.18488 46.932 2.9811 42.9406C3.36757 42.2471 5.76368 38.0363 7.3728 36.0335C9.12948 33.8468 11.4975 29.6785 10.6402 25.1351C10.05 22.0213 9.38244 20.2167 9.01705 19.3887C9.46676 18.7942 9.9516 18.221 10.4716 17.676C11.4623 16.7136 12.5304 15.7157 13.8866 15.3194C15.0881 14.9444 16.4935 15.185 17.428 16.0484C18.8545 17.485 18.3766 19.7496 17.7232 21.4551C16.7113 23.9391 15.1865 26.1683 13.9709 28.5532C11.118 34.0025 8.77815 39.9046 8.51113 46.1252C8.44789 49.607 8.61653 53.287 10.0921 56.4858C10.1484 56.5707 10.2046 56.6344 10.2678 56.6981C10.2748 58.807 11.2024 60.8593 12.2845 62.6356C13.8514 65.1338 15.8259 67.3488 17.1961 69.9744C17.2524 70.0734 17.3015 70.1796 17.3507 70.2787C15.1514 67.639 12.6007 65.3248 10.4575 62.6356L10.4646 62.6285ZM70.824 60.2012C68.6458 66.3368 64.8935 71.8214 60.2418 76.3294C56.6231 75.7916 45.7035 74.4257 39.1476 76.5205C32.5847 78.6153 25.9093 86.0743 23.7942 88.6008C22.2203 87.8011 20.7025 86.8669 19.4025 85.6639C18.0815 84.4608 16.9643 83.0596 15.8822 81.6371C14.4417 79.691 13.0223 77.5679 12.4882 75.1688C12.0948 72.8476 14.2168 72.7131 15.5308 74.0577C16.8378 75.2608 17.7372 76.9734 19.3815 77.759C22.0235 78.9974 24.251 76.386 26.2325 74.9919C28.6848 73.1448 31.355 71.503 34.2781 70.5264C37.5174 69.5781 41.101 69.9673 44.0733 71.5596C45.2608 72.2177 46.4484 72.9396 47.3618 73.9657C47.6851 74.355 47.7343 74.8857 48.3596 74.8999C48.8374 74.9282 49.245 74.4894 49.2028 74.0153C49.1607 73.4774 48.6618 72.9113 48.2753 72.515C45.1484 69.5639 40.7567 67.9999 36.4775 68.4245C31.9944 68.8916 28.0665 71.5384 24.5531 74.2205C23.464 75.0131 22.424 76.0463 21.11 76.4285C21.0398 76.4285 20.9695 76.4356 20.8992 76.4285C20.7587 74.9211 20.4003 73.435 19.8944 72.0054C18.7561 68.7076 16.62 65.9335 14.6033 63.1452C13.5563 61.6519 12.5093 59.9322 12.0948 58.0993C11.7786 56.8042 11.7575 54.2141 13.4017 53.8886C15.1022 54.4052 15.6643 56.8962 16.2194 58.3965C16.5497 59.2882 16.7886 60.3569 17.6388 60.9018C18.2993 61.3264 19.1988 61.0787 19.6836 60.4984C20.7727 59.0335 21.8619 57.5261 23.3726 56.4646C26.0498 54.5396 29.4859 53.7683 32.7252 54.3839C33.8705 54.5679 34.9316 55.035 35.8732 55.6861C35.8451 55.6507 35.8169 55.6153 35.7888 55.5799C35.7748 55.5587 35.7678 55.5375 35.7537 55.5163C35.7888 55.5799 35.831 55.6366 35.8802 55.6932C35.9856 55.7639 36.091 55.8418 36.1894 55.9196C36.5056 56.047 36.8147 55.9621 37.0255 55.771C37.665 55.5446 38.3676 54.6033 38.8525 54.1929C41.2767 51.8221 42.8858 48.7012 43.7852 45.4458C45.9986 37.0809 41.2345 28.3692 35.9013 22.2123C35.5499 21.809 35.1775 21.4197 34.8051 21.0376C34.5873 20.8111 34.3554 20.6059 34.1446 20.3723C34.0111 20.2237 33.5052 19.7425 33.7651 19.5514C34.3484 19.1127 35.3251 19.3745 35.9575 19.5373C37.152 19.8416 38.2974 20.3228 39.4287 20.8111C39.8854 21.0093 40.3492 21.2074 40.8059 21.3985C41.1291 21.533 41.4664 21.6957 41.8107 21.7806C43.2723 22.3114 44.4809 20.9385 45.5489 20.1317C46.9332 18.9853 48.3034 17.8317 49.6947 16.6994C50.3904 16.1404 51.1071 15.5813 51.8519 15.0222C51.9362 14.9514 52.0276 14.8807 52.126 14.817C52.126 14.817 59.2159 18.7093 64.6476 15.2557C66.6572 18.129 68.2874 21.2853 69.5803 24.5406C71.0559 28.4612 72.3278 32.488 73.0585 36.6209C73.1991 37.4772 73.3185 38.3335 73.4169 39.1969C73.5082 39.5932 73.431 40.0815 73.5364 40.4849C73.5364 40.5274 73.5364 40.5769 73.5364 40.6194C73.5785 41.8154 73.5926 43.0184 73.6066 44.2144C73.6558 49.6495 72.5877 55.0775 70.8381 60.2153L70.824 60.2012Z" fill="black"/>
<path d="M61.9139 19.2262C62.455 18.936 63.1225 18.8582 63.0312 18.0514C62.715 16.8271 61.4501 17.5489 60.7615 17.9806C59.7637 18.6105 58.8643 19.4031 58.1335 20.3372C57.2692 21.4554 56.7282 22.8142 56.5314 24.2154C56.4682 24.6612 56.8336 25.0788 57.2622 25.1283C58.2811 25.2132 58.1546 24.0102 58.4076 23.3378C58.6395 22.5877 59.0119 21.8871 59.4967 21.2714C60.1713 20.4434 60.9934 19.7428 61.9139 19.2262Z" fill="white"/>
<path d="M49.828 28.1286C50.4393 28.5037 51.2404 27.8243 51.0015 27.152C50.7696 26.416 48.5421 25.6304 47.7903 25.6234C46.132 25.5597 44.4807 26.1824 43.1245 27.1237C42.724 27.4351 42.1689 27.7464 42.1759 28.3197C42.1619 29.0557 43.1807 29.4095 43.6164 28.8363C44.1785 28.3409 44.8391 27.98 45.5277 27.704C47.1298 27.0317 48.3875 27.1732 49.828 28.1286ZM43.7218 28.6947C43.6937 28.7443 43.6586 28.7938 43.6234 28.8363C43.6937 28.7514 43.7429 28.6594 43.778 28.5532C43.771 28.6027 43.7429 28.6452 43.7218 28.6947Z" fill="white"/>
<path d="M54.269 27.4497C53.1518 28.0158 53.5944 29.0986 54.536 29.5586C54.9436 29.785 55.3792 29.9337 55.8078 30.1177C56.0538 30.2167 56.2857 30.3653 56.5597 30.3866C58.0845 30.337 57.7753 28.1998 57.6559 27.1524C57.1921 25.3832 55.2036 26.9684 54.269 27.4567V27.4497Z" fill="white"/>
<path d="M28.3192 28.971C25.8669 29.7637 24.7567 32.0778 24.054 33.2667C22.719 32.9129 20.7093 31.8867 18.4045 33.0615C11.0124 36.8123 30.1532 47.7178 30.1532 47.7178C30.1532 47.7319 36.2173 26.4163 28.3122 28.9781L28.3192 28.971ZM30.1532 47.6895C30.1532 47.6895 30.1532 47.6895 30.1532 47.6965C30.1532 47.6965 30.1532 47.6965 30.1532 47.6895Z" fill="#FC5800"/>
<path d="M86.0475 36.071C87.5582 34.5636 89.5397 33.8135 91.9921 33.8135H103.916C105.526 33.8135 106.952 34.1461 108.196 34.8184C109.432 35.4907 110.409 36.4744 111.112 37.7765C111.814 39.0787 112.166 40.6427 112.166 42.4685V61.2436H108.217V42.1996C108.217 40.5224 107.76 39.3901 106.854 38.7815C105.947 38.1799 104.83 37.8756 103.495 37.8756H92.4488C91.1207 37.8756 89.9965 38.1799 89.09 38.7815C88.1836 39.3901 87.7268 40.5224 87.7268 42.1996V61.2436H83.7778V42.4685C83.7778 39.7156 84.5297 37.5855 86.0404 36.0781L86.0475 36.071ZM91.725 49.1845H104.268V53.1617H91.725V49.1845Z" fill="black"/>
<path d="M110.17 66.445H112.475C113.444 66.445 114.21 66.3388 114.773 66.1336C115.335 65.9283 115.763 65.5108 116.058 64.881C116.354 64.2511 116.501 63.3311 116.501 62.121V33.8063H120.45V62.1564C120.45 64.9871 119.825 67.096 118.574 68.469C117.323 69.8489 115.405 70.5354 112.819 70.5354H110.17V66.4379V66.445ZM116.494 25.8943H120.443V30.2607H116.494V25.8943Z" fill="black"/>
<path d="M126.528 58.9929C125.031 57.4996 124.287 55.3766 124.287 52.6166V33.8062H128.236V52.8501C128.236 54.5486 128.692 55.695 129.599 56.2895C130.505 56.8839 131.623 57.1812 132.958 57.1812H143.884C145.212 57.1812 146.322 56.8839 147.222 56.2895C148.114 55.695 148.564 54.5486 148.564 52.8501V33.8062H152.513V52.6166C152.513 55.3695 151.761 57.4996 150.25 58.9929C148.74 60.4861 146.744 61.2362 144.271 61.2362H132.494C130.013 61.2362 128.025 60.4932 126.528 58.9929Z" fill="black"/>
<path d="M158.591 59.0921C157.094 57.6626 156.349 55.5819 156.349 52.8573V42.1995C156.349 39.4678 157.094 37.3943 158.591 35.9648C160.088 34.5352 162.09 33.8205 164.592 33.8205H175.596V37.8755H165.013C163.685 37.8755 162.561 38.1728 161.655 38.7672C160.748 39.3617 160.291 40.5081 160.291 42.2066V52.8644C160.291 54.5629 160.748 55.7093 161.655 56.3038C162.561 56.8982 163.678 57.1955 165.013 57.1955H175.982C177.31 57.1955 178.427 56.8982 179.341 56.3038C180.247 55.7093 180.704 54.5629 180.704 52.8644V24.8965H184.695V52.7441C184.695 55.4758 183.929 57.5706 182.398 59.0426C180.866 60.5146 178.856 61.2435 176.376 61.2435H164.599C162.09 61.2435 160.095 60.5287 158.598 59.0992L158.591 59.0921Z" fill="black"/>
<path d="M192.565 60.2667C191.3 59.6227 190.31 58.6602 189.593 57.3864C188.876 56.1126 188.518 54.5486 188.518 52.6944V42.3409C188.518 39.588 189.284 37.472 190.816 36.0071C192.347 34.5422 194.371 33.8062 196.873 33.8062H208.607C211.116 33.8062 213.111 34.5209 214.608 35.9505C216.105 37.38 216.85 39.4606 216.85 42.1852V61.2292H212.858V42.1852C212.858 40.508 212.409 39.3757 211.516 38.7671C210.624 38.1655 209.493 37.8612 208.143 37.8612H197.175C195.847 37.8612 194.722 38.1655 193.816 38.7671C192.91 39.3757 192.453 40.508 192.453 42.1852V52.843C192.453 54.5203 192.91 55.6596 193.816 56.2612C194.722 56.8698 195.84 57.167 197.175 57.167H207.757V61.2221H196.901C195.263 61.2221 193.816 60.9036 192.544 60.2596L192.565 60.2667Z" fill="black"/>
<path d="M195.825 79.7496C194.863 78.9641 194.364 77.9025 194.364 76.5225C194.364 76.1121 194.392 75.6733 194.49 75.2345C194.898 73.4795 195.769 71.8164 197.167 70.2524C198.538 68.6884 200.126 67.6481 201.96 67.1173C202.487 66.99 202.957 66.9263 203.393 66.9263C205.072 66.9263 205.979 67.6127 206.098 68.9644C206.098 69.0918 206.098 69.2121 206.07 69.3749C205.916 70.2241 205.199 71.0663 203.892 71.9438C202.55 72.8213 200.533 73.5432 197.758 74.0739C197.54 74.6047 197.35 75.1072 197.259 75.5459C197.196 75.8927 197.167 76.1758 197.167 76.4588C197.167 77.4284 197.54 78.1219 198.257 78.589C198.973 79.0632 199.936 79.2755 201.18 79.2755C204.538 79.0561 207.806 78.1502 210.982 76.5509C214.123 74.9515 217.081 73.2601 219.822 71.413C220.039 71.2856 220.229 71.2219 220.384 71.2219C220.573 71.2219 220.728 71.2856 220.854 71.3776C220.981 71.4696 221.044 71.597 221.044 71.7527V71.8447C221.016 72.0004 220.89 72.1561 220.672 72.3118C216.751 74.8524 213.076 76.8905 209.682 78.4262C206.26 79.9902 203.239 80.8112 200.653 80.9032C198.383 80.9032 196.795 80.5281 195.825 79.7425V79.7496ZM202.831 71.1299C203.73 70.5992 204.229 70.0967 204.293 69.6863V69.5589C204.293 69.1838 204.011 68.9927 203.421 68.9644C202.894 68.9644 202.142 69.2475 201.243 69.7783C200.343 70.3444 199.374 71.2856 198.411 72.6303C200.435 72.1915 201.896 71.689 202.831 71.1229V71.1299Z" fill="#FC5800"/>
<path d="M219.674 87.4635C218.866 86.0552 218.458 84.0453 218.458 81.5047C218.458 78.1503 218.985 74.166 220.047 69.4952C220.89 65.5746 221.881 61.5974 223.033 57.6131C224.15 53.6288 225.211 49.9629 226.237 46.6085C227.08 43.8202 227.762 41.5273 228.289 39.6802C228.479 39.1494 228.725 38.739 229.006 38.4913C229.287 38.2436 229.568 38.1162 229.849 38.1162C230.193 38.1162 230.53 38.2719 230.811 38.6187C231.093 38.9654 231.219 39.4042 231.219 39.9987C231.219 40.2181 231.191 40.4657 231.128 40.7488C231.064 41.0319 230.973 41.3433 230.847 41.69C230.003 44.0396 228.76 47.9602 227.052 53.4448C225.338 58.9294 223.848 64.5414 222.569 70.3444C221.606 74.7038 221.136 78.3696 221.136 81.3136C221.136 82.8776 221.325 84.1373 221.663 85.1068C222 86.0764 222.597 86.6708 223.44 86.8336L223.876 86.8619C225.246 86.8619 227.052 86.0481 229.294 84.385C231.535 82.7219 233.777 80.7192 236.046 78.3696C238.316 76.0201 240.248 73.6989 241.864 71.413C241.956 71.3494 242.054 71.2857 242.174 71.2574C242.265 71.229 242.363 71.229 242.455 71.229C242.644 71.229 242.799 71.2574 242.954 71.321C243.108 71.413 243.171 71.5121 243.171 71.6324V71.6607C243.171 71.6607 243.171 71.689 243.143 71.689V71.7527L243.08 71.8164C242.581 72.602 241.773 73.6635 240.649 75.0435C239.532 76.4235 238.218 77.8955 236.7 79.4949C235.175 81.0942 233.587 82.6299 231.936 84.1019C230.256 85.5739 228.605 86.7699 227.017 87.7041C225.429 88.6382 223.967 89.1124 222.689 89.1124C221.41 89.1124 220.447 88.5462 219.667 87.4493L219.674 87.4635Z" fill="#FC5800"/>
<path d="M240.965 79.7496C240.002 78.9641 239.503 77.9025 239.503 76.5225C239.503 76.1121 239.532 75.6733 239.63 75.2345C240.037 73.4795 240.909 71.8164 242.307 70.2524C243.677 68.6884 245.265 67.6481 247.099 67.1173C247.626 66.99 248.097 66.9263 248.533 66.9263C250.212 66.9263 251.119 67.6127 251.238 68.9644C251.238 69.0918 251.238 69.2121 251.21 69.3749C251.055 70.2241 250.339 71.0663 249.032 71.9438C247.69 72.8213 245.673 73.5432 242.897 74.0739C242.679 74.6047 242.49 75.1072 242.398 75.5459C242.335 75.8927 242.307 76.1758 242.307 76.4588C242.307 77.4284 242.679 78.1219 243.396 78.589C244.113 79.0632 245.076 79.2755 246.319 79.2755C249.678 79.0561 252.946 78.1502 256.122 76.5509C259.263 74.9515 262.221 73.2601 264.961 71.413C265.179 71.2856 265.369 71.2219 265.523 71.2219C265.713 71.2219 265.868 71.2856 265.994 71.3776C266.121 71.4696 266.184 71.597 266.184 71.7527V71.8447C266.156 72.0004 266.029 72.1561 265.811 72.3118C261.891 74.8524 258.216 76.8905 254.822 78.4262C251.4 79.9902 248.378 80.8112 245.792 80.9032C243.523 80.9032 241.935 80.5281 240.965 79.7425V79.7496ZM247.971 71.1299C248.87 70.5992 249.369 70.0967 249.432 69.6863V69.5589C249.432 69.1838 249.151 68.9927 248.561 68.9644C248.034 68.9644 247.282 69.2475 246.383 69.7783C245.483 70.3444 244.513 71.2856 243.551 72.6303C245.574 72.1915 247.036 71.689 247.971 71.1229V71.1299Z" fill="#FC5800"/>
<path d="M263.099 87.9021C262.692 87.6545 262.474 87.2723 262.474 86.8052L262.502 86.4938C262.593 86.0834 262.846 85.6163 263.247 85.0855C263.964 84.2717 264.835 83.4862 265.896 82.736C266.957 81.9859 268.011 81.2923 269.037 80.6696C269.128 80.6412 269.192 80.5775 269.255 80.5422C268.665 79.8203 268.039 79.0985 267.322 78.4403C266.514 77.7185 265.798 76.9683 265.172 76.1545C264.547 75.3689 264.238 74.4277 264.238 73.3308C264.238 72.984 264.266 72.6443 264.364 72.2622C264.828 70.6628 266.142 69.1908 268.285 67.7825C270.435 66.3742 272.269 65.6807 273.822 65.6807C274.476 65.6807 275.003 65.8364 275.41 66.1194C275.818 66.4308 276.064 66.9333 276.127 67.6268C276.127 67.7542 276.127 67.8745 276.099 68.0373C276.071 68.2567 275.972 68.476 275.853 68.6317C275.726 68.7874 275.607 68.8794 275.48 68.8794C275.452 68.8794 275.389 68.8511 275.354 68.8157C275.291 68.7874 275.227 68.752 275.199 68.66C274.982 68.3133 274.546 68.1576 273.956 68.1576C272.867 68.1576 271.588 68.5964 270.098 69.5022C268.573 70.408 267.611 71.5687 267.203 72.984C267.175 73.2671 267.14 73.5502 267.14 73.8616C267.231 74.8311 267.512 75.6166 267.948 76.2111C268.383 76.8409 268.91 77.4 269.501 77.9379C269.972 78.3766 270.463 78.8791 270.934 79.4099C272.304 78.596 273.52 77.8742 274.574 77.216C275.818 76.4305 277.16 75.6166 278.621 74.7674C280.083 73.9182 282.015 72.8213 284.475 71.505C284.721 71.3139 284.974 71.2219 285.219 71.2219C285.374 71.2219 285.501 71.2502 285.592 71.3139C285.683 71.4059 285.746 71.505 285.746 71.6253V71.6536C285.718 71.7456 285.655 71.873 285.501 72.0003C283.104 73.2883 281.081 74.3853 279.493 75.3548C277.877 76.3243 276.38 77.2656 275.01 78.1431C273.921 78.8296 272.768 79.5514 271.553 80.3086C271.988 81.0942 272.206 81.8443 272.206 82.5662C272.206 82.8138 272.178 83.0686 272.143 83.3163C271.834 84.5406 271.117 85.5738 269.964 86.4514C268.812 87.3289 267.442 87.8951 265.889 88.1781C265.481 88.2418 265.109 88.2701 264.737 88.2701C264.02 88.2701 263.493 88.1428 263.085 87.8951L263.099 87.9021ZM268.109 85.0785C269.199 84.484 269.887 83.6985 270.161 82.7926L270.189 82.4459C270.189 82.0991 270.098 81.7594 269.88 81.4126C268.166 82.5095 266.922 83.4154 266.177 84.0735C265.397 84.7317 264.997 85.2342 264.933 85.5455V85.6375C264.933 85.8852 265.123 86.0126 265.524 86.0126C266.177 86.0126 267.02 85.7012 268.109 85.0714V85.0785Z" fill="#FC5800"/>
</svg>
