<svg width="411" height="264" viewBox="0 0 411 264" fill="none" xmlns="http://www.w3.org/2000/svg">
<g clip-path="url(#clip0_15_198)">
<path d="M129.5 108.172C126.057 103.814 122.964 99.1198 120.695 94.0398C118.001 87.5031 116.579 80.5555 116.217 73.5331C116.916 72.313 121.156 64.9046 124.012 61.381C127.13 57.5337 131.333 50.2001 129.811 42.2066C128.764 36.7282 127.579 33.5532 126.93 32.0964C127.729 31.0506 128.589 30.042 129.512 29.0833C131.271 27.39 133.166 25.6344 135.573 24.9371C137.706 24.2772 140.2 24.7006 141.859 26.2196C144.391 28.7471 143.543 32.7314 142.383 35.7321C140.587 40.1024 137.881 44.0244 135.723 48.2204C130.66 57.8076 126.506 68.1917 126.032 79.1361C125.92 85.2619 126.22 91.7364 128.839 97.3642C128.938 97.5136 129.038 97.6257 129.15 97.7253C129.163 101.436 130.809 105.046 132.73 108.172C135.511 112.567 139.016 116.464 141.448 121.083C141.547 121.258 141.635 121.444 141.722 121.619C137.818 116.974 133.291 112.903 129.487 108.172H129.5Z" fill="black"/>
<path d="M236.632 103.901C232.766 114.696 226.106 124.346 217.85 132.277C211.427 131.33 192.046 128.927 180.409 132.613C168.761 136.298 156.913 149.422 153.159 153.867C150.365 152.46 147.671 150.816 145.364 148.7C143.019 146.583 141.036 144.118 139.115 141.615C136.559 138.191 134.039 134.456 133.091 130.235C132.393 126.151 136.16 125.914 138.492 128.28C140.812 130.397 142.408 133.41 145.326 134.792C150.016 136.971 153.969 132.376 157.486 129.924C161.839 126.674 166.578 123.785 171.767 122.067C177.516 120.399 183.877 121.083 189.152 123.885C191.26 125.043 193.368 126.313 194.989 128.118C195.563 128.803 195.65 129.737 196.76 129.762C197.608 129.811 198.331 129.04 198.257 128.205C198.182 127.259 197.296 126.263 196.61 125.566C191.06 120.374 183.266 117.622 175.67 118.369C167.713 119.191 160.741 123.847 154.506 128.566C152.572 129.961 150.727 131.779 148.394 132.451C148.27 132.451 148.145 132.464 148.02 132.451C147.771 129.799 147.135 127.184 146.237 124.669C144.216 118.867 140.425 113.986 136.845 109.081C134.987 106.454 133.129 103.428 132.393 100.203C131.832 97.9246 131.794 93.3676 134.713 92.7948C137.731 93.7038 138.729 98.0865 139.714 100.726C140.3 102.295 140.724 104.175 142.233 105.134C143.406 105.881 145.002 105.445 145.863 104.424C147.796 101.847 149.729 99.1946 152.41 97.327C157.162 93.9403 163.261 92.5832 169.01 93.6664C171.043 93.9901 172.926 94.8119 174.598 95.9574C174.548 95.8951 174.498 95.8329 174.448 95.7706C174.423 95.7333 174.411 95.6959 174.386 95.6586C174.448 95.7706 174.523 95.8702 174.61 95.9698C174.797 96.0943 174.972 96.2313 175.159 96.3683C175.72 96.5924 176.269 96.443 176.643 96.1068C177.778 95.7084 179.025 94.0524 179.886 93.3302C184.188 89.1592 187.044 83.6683 188.641 77.9409C192.569 63.2239 184.114 47.8968 174.647 37.0645C174.024 36.3547 173.363 35.6699 172.702 34.9976C172.315 34.5992 171.904 34.2381 171.53 33.8272C171.293 33.5657 170.395 32.7191 170.856 32.3829C171.891 31.6109 173.625 32.0716 174.747 32.358C176.867 32.8934 178.9 33.7401 180.908 34.5992C181.719 34.9478 182.542 35.2964 183.353 35.6326C183.927 35.8692 184.525 36.1555 185.136 36.3049C187.73 37.2388 189.876 34.8233 191.771 33.4039C194.228 31.3868 196.66 29.3573 199.13 27.3652C200.364 26.3815 201.636 25.3979 202.958 24.4143C203.108 24.2898 203.27 24.1653 203.445 24.0532C203.445 24.0532 216.029 30.9012 225.67 24.8252C229.237 29.8803 232.13 35.4334 234.425 41.1608C237.044 48.0586 239.301 55.1432 240.598 62.4146C240.848 63.9211 241.06 65.4277 241.234 66.9467C241.397 67.6439 241.259 68.5031 241.446 69.2128C241.446 69.2875 241.446 69.3746 241.446 69.4493C241.521 71.5535 241.546 73.6702 241.571 75.7744C241.658 85.3367 239.763 94.8866 236.657 103.926L236.632 103.901Z" fill="black"/>
<path d="M174.66 92.7327C174.66 92.7327 174.66 92.7327 174.647 92.7327C174.685 92.77 174.71 92.8074 174.747 92.8323C174.722 92.8074 174.697 92.77 174.66 92.7451V92.7327Z" fill="white"/>
<path d="M198.219 67.6191C196.86 67.5568 194.964 67.7934 195.351 69.5988C195.85 71.2049 197.608 70.3832 198.818 70.545C203.657 70.6945 207.673 74.0936 209.182 78.6008C210.379 81.9626 210.23 85.5982 210.105 89.1094C209.893 93.654 208.92 98.3978 206.076 102.071C205.765 102.432 205.44 102.756 205.104 103.042C205.129 100.925 204.667 97.9496 204.542 96.9037C203.994 95.173 201.437 95.7457 201.699 97.5387C201.998 99.7549 202.235 101.984 202.135 104.212C202.135 104.3 202.135 104.374 202.148 104.449C201.362 104.598 200.564 104.586 199.791 104.399C199.965 101.946 199.94 99.4935 199.766 97.0531C199.728 95.2851 197.159 95.1107 196.872 96.8414C196.822 97.7752 196.997 98.734 196.984 99.6802C197.009 100.739 197.009 101.784 196.972 102.843C196.448 102.345 195.987 101.735 195.6 101.012C194.403 98.7589 194.403 96.1442 194.453 93.6664C194.59 90.0806 194.939 86.4698 194.49 82.8839C194.178 80.9914 191.385 81.4147 191.597 83.3073C192.033 86.7313 191.647 90.1926 191.534 93.6166C191.372 97.3395 191.759 101.398 194.353 104.3C195.725 105.843 197.558 107.026 199.616 107.362C205.503 108.371 209.706 103.403 211.352 98.2982C212.699 94.6501 213.048 90.728 213.098 86.8682C213.111 84.8138 213.098 82.747 212.749 80.705C211.564 73.3465 205.927 67.5568 198.232 67.5942L198.219 67.6191Z" fill="white"/>
<path d="M238.104 79.0488C236.296 78.1773 235.672 80.5803 235.036 81.7756C233.377 85.5109 233.09 89.6446 232.329 93.6164C231.793 96.4677 230.983 99.319 229.386 101.772C229.336 101.859 229.274 101.934 229.224 102.021C229.187 100.676 229.162 99.319 229.112 97.9743C229.087 97.277 229.012 96.5922 228.987 95.895C229.037 95.509 228.925 95.0981 228.675 94.7868C227.777 93.6662 225.969 94.4382 226.069 95.8451C226.243 98.6342 226.281 101.436 226.368 104.237C226.368 104.324 226.38 104.411 226.393 104.486C225.557 104.835 224.697 104.909 223.849 104.685C223.899 104.536 223.924 104.374 223.911 104.2C223.836 102.133 223.849 100.066 223.824 97.9992C223.824 97.3393 223.836 96.7043 223.799 96.0444C223.487 94.2514 220.868 94.5004 220.893 96.2934C220.893 98.3353 220.918 100.377 220.943 102.419C217.55 97.5011 218.648 87.4657 219.583 81.7631C220.406 76.845 222.153 71.8522 225.956 68.4406C227.827 66.71 230.134 65.0913 232.754 64.9295C234.387 65.1536 235.186 62.6759 233.302 62.0782C226.992 61.6798 220.544 68.8266 218.548 74.3673C216.44 80.1445 215.754 86.37 215.792 92.4958C215.717 98.3602 217.214 106.441 224.023 107.723C227.353 108.159 230.359 105.818 232.005 103.104C234.824 98.7089 235.285 93.3923 236.183 88.3621C236.545 86.4073 237.019 84.4525 237.854 82.6472C238.378 81.4892 239.65 80.0325 238.104 79.0737V79.0488Z" fill="white"/>
<path d="M244.502 70.8688C244.477 69.0136 244.44 67.146 244.365 65.2908C244.365 65.1663 244.365 65.0418 244.352 64.9173C244.352 64.8301 244.352 64.743 244.352 64.6683C244.352 64.4939 244.327 64.3321 244.277 64.1827C244.203 63.6348 244.115 63.1119 244.103 62.6761C243.355 56.3137 241.708 50.0882 239.738 43.9997C236.433 33.8895 231.843 23.991 224.984 15.7734C222.252 12.5237 207.149 -3.35121 203.295 1.40505C202.372 2.7373 203.108 10.4693 203.195 12.7603C203.22 14.2918 203.457 15.8357 203.27 17.3671C199.766 19.9569 196.56 22.4596 193.156 25.2984C191.023 26.9668 189.065 28.9465 186.695 30.2912C186.358 30.4904 186.009 30.2539 185.685 30.1418C184.775 29.7807 183.864 29.4072 182.954 29.0212C179.125 27.6267 171.978 23.7171 168.574 27.3154C167.838 28.1123 167.626 29.4072 168 30.4531C168.137 31.6857 169.771 32.6569 170.494 33.6032C173.812 36.9774 176.755 40.7251 179.287 44.7094C183.303 51.2337 186.446 58.6046 186.82 66.3242C186.97 72.6119 184.712 78.7503 181.345 83.9797C179.711 86.2333 177.94 88.1134 175.807 90.0059C172.939 87.9266 169.11 87.3289 165.63 87.1671C156.276 86.9679 148.806 91.6992 143.692 99.2943C141.921 95.9948 141.572 91.9358 139.003 89.0596C136.01 85.2746 132.169 86.3578 130.348 89.595C129.375 86.0963 129.125 82.3984 129.001 78.7876C128.814 69.0883 131.907 59.6754 136.06 51.0096C137.831 47.2494 139.851 43.6262 141.921 40.0403C144.541 35.4086 147.546 30.0671 146.137 24.5638C145.301 21.3514 142.37 19.0107 139.103 18.5998C134.488 17.8403 130.373 20.8285 127.354 23.991C121.006 30.6149 117.502 39.3804 115.506 48.2081C111.802 63.8465 112.376 81.1533 119.884 95.6213C123.176 101.648 127.305 107.238 132.081 112.181C135.149 115.344 138.217 118.531 140.974 121.98C141.921 123.213 143.056 124.769 143.705 126.363C143.081 125.603 142.483 124.831 141.859 124.234C140.974 123.262 140.013 122.353 138.903 121.644C135.798 119.764 131.47 120.486 130.435 124.321C129.836 126.537 130.472 128.903 131.37 130.957C133.091 134.916 135.474 138.552 138.23 141.877C141.647 146.409 145.975 150.181 151.001 152.808C157.262 155.324 161.103 155.398 164.159 155.597C184.101 156.805 203.083 146.683 217.463 133.522C229.748 122.59 238.765 108.309 242.232 92.1226C243.916 85.1749 244.726 78.053 244.539 70.8813L244.502 70.8688ZM170.32 29.1831C170.32 29.1831 170.307 29.1831 170.295 29.1706C170.345 29.1955 170.407 29.2329 170.457 29.2578C170.482 29.2702 170.494 29.2951 170.519 29.3076C170.457 29.2578 170.382 29.2204 170.307 29.1831H170.32ZM129.549 104.947C126.107 100.589 123.014 95.8952 120.744 90.8152C118.05 84.2785 116.629 77.3308 116.267 70.3085C116.953 69.0883 121.206 61.68 124.062 58.1564C127.18 54.3091 131.383 46.9755 129.861 38.982C128.814 33.5036 127.629 30.3286 126.98 28.8718C127.778 27.8259 128.639 26.8174 129.562 25.8587C131.32 24.1654 133.216 22.4098 135.623 21.7125C137.756 21.0526 140.25 21.476 141.909 22.995C144.441 25.5225 143.593 29.5068 142.433 32.5075C140.637 36.8778 137.93 40.7998 135.773 44.9958C130.709 54.583 126.556 64.9671 126.082 75.9114C125.97 82.0373 126.269 88.5118 128.888 94.1396C128.988 94.289 129.088 94.4011 129.2 94.5131C129.213 98.2235 130.859 101.834 132.78 104.959C135.561 109.355 139.065 113.252 141.497 117.871C141.597 118.045 141.684 118.232 141.772 118.406C137.868 113.762 133.341 109.691 129.537 104.959L129.549 104.947ZM236.682 100.676C232.816 111.471 226.156 121.121 217.9 129.052C211.477 128.106 192.095 125.703 180.459 129.388C168.811 133.074 156.962 146.197 153.208 150.642C150.415 149.235 147.721 147.591 145.414 145.475C143.069 143.358 141.086 140.893 139.165 138.39C136.608 134.966 134.089 131.231 133.141 127.01C132.443 122.926 136.209 122.69 138.542 125.055C140.861 127.172 142.458 130.185 145.376 131.567C150.066 133.746 154.019 129.152 157.536 126.699C161.889 123.449 166.628 120.561 171.816 118.842C177.566 117.174 183.926 117.859 189.202 120.66C191.31 121.818 193.417 123.088 195.039 124.893C195.613 125.578 195.7 126.512 196.81 126.537C197.658 126.587 198.381 125.815 198.306 124.981C198.232 124.034 197.346 123.038 196.66 122.341C191.11 117.149 183.315 114.397 175.72 115.144C167.763 115.966 160.791 120.623 154.555 125.342C152.622 126.736 150.776 128.554 148.444 129.226C148.319 129.226 148.195 129.239 148.07 129.226C147.821 126.574 147.185 123.96 146.287 121.445C144.266 115.642 140.475 110.762 136.895 105.856C135.037 103.229 133.179 100.203 132.443 96.9784C131.882 94.6999 131.844 90.1429 134.763 89.5701C137.781 90.479 138.779 94.8618 139.764 97.5014C140.35 99.0702 140.774 100.95 142.283 101.909C143.455 102.656 145.052 102.22 145.912 101.199C147.846 98.622 149.779 95.9699 152.46 94.1023C157.212 90.7156 163.311 89.3585 169.06 90.4417C171.093 90.7654 172.976 91.5872 174.647 92.7327C174.598 92.6704 174.548 92.6082 174.498 92.5459C174.473 92.5086 174.46 92.4712 174.435 92.4338C174.498 92.5459 174.573 92.6455 174.66 92.7451C174.847 92.8696 175.034 93.0066 175.209 93.1435C175.77 93.3677 176.319 93.2182 176.693 92.8821C177.828 92.4836 179.075 90.8277 179.935 90.1055C184.238 85.9344 187.094 80.4436 188.691 74.7162C192.619 59.9992 184.163 44.6721 174.697 33.8397C174.074 33.13 173.413 32.4452 172.752 31.7729C172.365 31.3745 171.954 31.0134 171.579 30.6025C171.342 30.341 170.444 29.4944 170.906 29.1582C171.941 28.3862 173.675 28.8469 174.797 29.1333C176.917 29.6687 178.95 30.5153 180.958 31.3745C181.769 31.7231 182.592 32.0717 183.403 32.4079C183.976 32.6444 184.575 32.9308 185.186 33.0802C187.78 34.014 189.925 31.5986 191.821 30.1792C194.278 28.1621 196.71 26.1326 199.179 24.1405C200.414 23.1568 201.686 22.1732 203.008 21.1896C203.158 21.0651 203.32 20.9406 203.495 20.8285C203.495 20.8285 216.079 27.6765 225.719 21.6005C229.286 26.6555 232.18 32.2087 234.475 37.9361C237.094 44.8339 239.351 51.9185 240.648 59.1898C240.898 60.6964 241.11 62.203 241.284 63.722C241.446 64.4192 241.309 65.2784 241.496 65.9881C241.496 66.0628 241.496 66.1499 241.496 66.2246C241.571 68.3288 241.596 70.4455 241.621 72.5497C241.708 82.112 239.813 91.6619 236.707 100.701L236.682 100.676Z" fill="black"/>
<path d="M220.868 28.5855C221.828 28.075 223.013 27.938 222.851 26.5186C222.29 24.3646 220.045 25.6346 218.822 26.3941C217.051 27.5022 215.455 28.8967 214.158 30.5403C212.624 32.5075 211.664 34.8981 211.314 37.3634C211.202 38.1478 211.851 38.8824 212.612 38.9695C214.42 39.119 214.195 37.0023 214.644 35.8195C215.056 34.4997 215.717 33.267 216.578 32.1838C217.775 30.727 219.234 29.4944 220.868 28.5855Z" fill="white"/>
<path d="M199.416 44.2487C200.501 44.9086 201.923 43.7134 201.499 42.5305C201.088 41.2356 197.134 39.8536 195.8 39.8411C192.856 39.7291 189.925 40.8247 187.518 42.4807C186.807 43.0286 185.822 43.5764 185.835 44.5849C185.81 45.8798 187.618 46.5024 188.391 45.4938C189.389 44.6223 190.561 43.9873 191.784 43.5017C194.627 42.3189 196.86 42.5679 199.416 44.2487ZM188.578 45.2448C188.529 45.332 188.466 45.4191 188.404 45.4938C188.529 45.3444 188.616 45.1826 188.678 44.9958C188.666 45.083 188.616 45.1577 188.578 45.2448Z" fill="white"/>
<path d="M207.299 43.0533C205.316 44.0493 206.101 45.9543 207.772 46.7636C208.496 47.1621 209.269 47.4235 210.03 47.7473C210.466 47.9216 210.878 48.183 211.364 48.2204C214.071 48.1332 213.522 44.3731 213.31 42.5303C212.487 39.4176 208.957 42.2066 207.299 43.0657V43.0533Z" fill="white"/>
<path d="M161.24 45.7305C156.888 47.125 154.917 51.1965 153.67 53.2882C151.3 52.6657 147.733 50.8603 143.643 52.9271C130.522 59.5261 164.495 78.713 164.495 78.713C164.495 78.7379 175.259 41.2357 161.228 45.743L161.24 45.7305ZM164.495 78.6632C164.495 78.6632 164.495 78.6632 164.495 78.6757C164.495 78.6757 164.495 78.6757 164.495 78.6632Z" fill="#FC5800"/>
<path d="M9.58336 243.489H3.60937L2.43702 246.253H0.142212L5.51755 234.325H7.70012L13.1004 246.253H10.7806L9.58336 243.489ZM8.84752 241.758L6.59013 236.541L4.35768 241.758H8.84752Z" fill="black"/>
<path d="M24.537 233.603V246.253H22.4917V245.083C21.7683 245.954 20.7207 246.377 19.4735 246.377C16.8295 246.377 14.8589 244.535 14.8589 241.708C14.8589 238.882 16.817 237.052 19.4735 237.052C20.6458 237.052 21.6935 237.438 22.4043 238.284V233.615H24.537V233.603ZM22.4293 241.708C22.4293 239.965 21.2445 238.857 19.7104 238.857C18.1764 238.857 16.9916 239.965 16.9916 241.708C16.9916 243.451 18.1639 244.56 19.7104 244.56C21.2569 244.56 22.4293 243.451 22.4293 241.708Z" fill="black"/>
<path d="M43.8558 241.036V246.253H41.7232V241.31C41.7232 239.691 40.9748 238.907 39.6778 238.907C38.2809 238.907 37.3081 239.828 37.3081 241.633V246.253H35.1755V241.31C35.1755 239.691 34.4272 238.907 33.1301 238.907C31.7083 238.907 30.7605 239.828 30.7605 241.633V246.253H28.6278V237.151H30.6607V238.309C31.3466 237.487 32.4067 237.052 33.6539 237.052C34.9884 237.052 36.0984 237.55 36.722 238.571C37.4578 237.637 38.68 237.052 40.1392 237.052C42.3467 237.052 43.8808 238.297 43.8808 241.036H43.8558Z" fill="black"/>
<path d="M47.5724 234.375C47.5724 233.653 48.1586 233.092 48.9318 233.092C49.7051 233.092 50.3037 233.615 50.3037 234.325C50.3037 235.072 49.7425 235.657 48.9318 235.657C48.1211 235.657 47.5724 235.097 47.5724 234.375ZM47.8592 237.151H49.9919V246.253H47.8592V237.151Z" fill="black"/>
<path d="M63.0499 241.036V246.253H60.9172V241.31C60.9172 239.691 60.119 238.907 58.7471 238.907C57.2256 238.907 56.2029 239.828 56.2029 241.646V246.253H54.0702V237.151H56.1031V238.322C56.8015 237.488 57.9115 237.039 59.246 237.039C61.4286 237.039 63.0499 238.284 63.0499 241.024V241.036Z" fill="black"/>
<path d="M66.7541 234.375C66.7541 233.653 67.3403 233.092 68.1135 233.092C68.8868 233.092 69.4854 233.615 69.4854 234.325C69.4854 235.072 68.9242 235.657 68.1135 235.657C67.3028 235.657 66.7541 235.097 66.7541 234.375ZM67.0409 237.151H69.1736V246.253H67.0409V237.151Z" fill="black"/>
<path d="M72.2167 245.344L73.0399 243.725C73.8381 244.248 75.0728 244.634 76.2202 244.634C77.5671 244.634 78.1284 244.261 78.1284 243.626C78.1284 241.883 72.4911 243.526 72.4911 239.891C72.4911 238.172 74.0501 237.039 76.507 237.039C77.7168 237.039 79.1012 237.326 79.9243 237.824L79.1012 239.442C78.2281 238.932 77.3551 238.758 76.4946 238.758C75.1975 238.758 74.5864 239.181 74.5864 239.779C74.5864 241.621 80.2236 239.978 80.2236 243.551C80.2236 245.257 78.6522 246.365 76.0955 246.365C74.5739 246.365 73.0523 245.917 72.2417 245.344H72.2167Z" fill="black"/>
<path d="M88.8041 245.755C88.2928 246.166 87.5195 246.365 86.7588 246.365C84.7633 246.365 83.6159 245.307 83.6159 243.302V238.919H82.1068V237.214H83.6159V235.134H85.7486V237.214H88.193V238.919H85.7486V243.252C85.7486 244.136 86.1975 244.609 87.0082 244.609C87.4572 244.609 87.8812 244.485 88.2055 244.236L88.8041 245.755Z" fill="black"/>
<path d="M97.1103 237.052V239.081C96.9233 239.044 96.7736 239.031 96.6115 239.031C94.9901 239.031 93.9674 239.99 93.9674 241.845V246.253H91.8348V237.151H93.8677V238.483C94.4788 237.525 95.5888 237.052 97.1103 237.052Z" fill="black"/>
<path d="M107.786 240.924V246.253H105.766V245.145C105.255 245.929 104.269 246.377 102.897 246.377C100.815 246.377 99.505 245.232 99.505 243.651C99.505 242.069 100.528 240.936 103.296 240.936H105.654V240.799C105.654 239.554 104.905 238.82 103.384 238.82C102.361 238.82 101.301 239.156 100.615 239.728L99.7794 238.172C100.752 237.425 102.174 237.052 103.633 237.052C106.265 237.052 107.786 238.297 107.786 240.924ZM105.654 243.401V242.343H103.446C101.999 242.343 101.6 242.891 101.6 243.551C101.6 244.323 102.249 244.808 103.346 244.808C104.444 244.808 105.292 244.335 105.654 243.389V243.401Z" fill="black"/>
<path d="M118.312 243.29L119.946 244.248C119.26 245.581 117.901 246.34 116.192 246.378L116.005 247.1C117.015 247.224 117.489 247.797 117.489 248.532C117.489 249.515 116.566 250.15 115.17 250.15C114.558 250.15 114.022 250.026 113.598 249.789L113.985 248.781C114.346 248.967 114.721 249.054 115.145 249.054C115.781 249.054 116.055 248.818 116.055 248.444C116.055 248.121 115.793 247.884 115.145 247.884H114.621L115.045 246.303C112.7 245.917 111.116 244.124 111.116 241.721C111.116 238.994 113.162 237.064 116.055 237.064C117.826 237.064 119.248 237.799 119.946 239.181L118.312 240.14C117.764 239.268 116.953 238.882 116.043 238.882C114.471 238.882 113.274 239.978 113.274 241.733C113.274 243.489 114.471 244.585 116.043 244.585C116.953 244.585 117.764 244.199 118.312 243.327V243.29Z" fill="black"/>
<path d="M130.697 240.924V246.253H128.676V245.145C128.165 245.929 127.18 246.378 125.808 246.378C123.725 246.378 122.416 245.232 122.416 243.651C122.416 242.07 123.438 240.937 126.207 240.937H128.564V240.8C128.564 239.555 127.816 238.82 126.294 238.82C125.272 238.82 124.212 239.156 123.526 239.729L122.69 238.173C123.663 237.425 125.085 237.052 126.544 237.052C129.175 237.052 130.697 238.297 130.697 240.924ZM124.81 235.807H123.663C123.7 234.412 124.411 233.528 125.509 233.528C126.606 233.528 127.217 234.649 127.828 234.649C128.302 234.649 128.627 234.288 128.664 233.678H129.811C129.774 235.01 129.063 235.906 127.966 235.906C126.868 235.906 126.257 234.786 125.646 234.786C125.172 234.786 124.848 235.159 124.81 235.807ZM128.564 243.402V242.344H126.357C124.91 242.344 124.511 242.891 124.511 243.551C124.511 244.323 125.159 244.809 126.257 244.809C127.354 244.809 128.203 244.336 128.564 243.389V243.402Z" fill="black"/>
<path d="M134.052 241.708C134.052 238.981 136.097 237.052 138.903 237.052C141.709 237.052 143.767 238.981 143.767 241.708C143.767 244.435 141.734 246.377 138.903 246.377C136.072 246.377 134.052 244.435 134.052 241.708ZM141.61 241.708C141.61 239.965 140.45 238.857 138.891 238.857C137.332 238.857 136.197 239.965 136.197 241.708C136.197 243.451 137.357 244.559 138.891 244.559C140.425 244.559 141.61 243.451 141.61 241.708Z" fill="black"/>
<path d="M162.001 233.603V246.253H159.956V245.083C159.232 245.954 158.185 246.377 156.938 246.377C154.294 246.377 152.323 244.535 152.323 241.708C152.323 238.882 154.281 237.052 156.938 237.052C158.11 237.052 159.158 237.438 159.868 238.284V233.615H162.001V233.603ZM159.906 241.708C159.906 239.965 158.721 238.857 157.187 238.857C155.653 238.857 154.468 239.965 154.468 241.708C154.468 243.451 155.64 244.56 157.187 244.56C158.733 244.56 159.906 243.451 159.906 241.708Z" fill="black"/>
<path d="M174.61 242.381H167.464C167.726 243.713 168.823 244.56 170.42 244.56C171.442 244.56 172.24 244.236 172.901 243.576L174.049 244.883C173.226 245.855 171.954 246.365 170.382 246.365C167.327 246.365 165.344 244.41 165.344 241.696C165.344 238.982 167.339 237.039 170.058 237.039C172.777 237.039 174.672 238.894 174.672 241.746C174.672 241.92 174.66 242.169 174.635 242.381H174.61ZM167.451 240.974H172.627C172.452 239.666 171.455 238.758 170.045 238.758C168.636 238.758 167.651 239.642 167.451 240.974Z" fill="black"/>
<path d="M183.315 240.289C183.315 236.765 186.047 234.151 189.751 234.151C193.455 234.151 196.186 236.74 196.186 240.289C196.186 243.837 193.455 246.427 189.751 246.427C186.047 246.427 183.315 243.825 183.315 240.289ZM193.954 240.289C193.954 237.849 192.158 236.093 189.751 236.093C187.344 236.093 185.548 237.849 185.548 240.289C185.548 242.729 187.344 244.485 189.751 244.485C192.158 244.485 193.954 242.729 193.954 240.289Z" fill="black"/>
<path d="M210.441 234.325V246.253H208.621L202.035 238.172V246.253H199.828V234.325H201.649L208.234 242.406V234.325H210.441Z" fill="black"/>
<path d="M223.088 240.152H225.183V244.908C223.936 245.917 222.19 246.427 220.506 246.427C216.802 246.427 214.071 243.85 214.071 240.289C214.071 236.728 216.802 234.151 220.544 234.151C222.539 234.151 224.21 234.811 225.345 236.093L223.948 237.45C223.013 236.516 221.928 236.093 220.656 236.093C218.112 236.093 216.316 237.811 216.316 240.289C216.316 242.767 218.112 244.485 220.631 244.485C221.479 244.485 222.315 244.311 223.088 243.875V240.164V240.152Z" fill="black"/>
<path d="M228.127 245.344L228.95 243.725C229.748 244.248 230.983 244.634 232.13 244.634C233.477 244.634 234.038 244.261 234.038 243.626C234.038 241.883 228.401 243.526 228.401 239.891C228.401 238.172 229.96 237.039 232.417 237.039C233.627 237.039 235.011 237.326 235.834 237.824L235.011 239.442C234.138 238.932 233.265 238.758 232.404 238.758C231.107 238.758 230.496 239.181 230.496 239.779C230.496 241.621 236.133 239.978 236.133 243.551C236.133 245.257 234.562 246.365 232.005 246.365C230.484 246.365 228.962 245.917 228.152 245.344H228.127Z" fill="black"/>
<path d="M56.0283 169.991C58.7098 167.339 62.2268 166.019 66.5795 166.019H87.7441C90.6001 166.019 93.1319 166.604 95.3394 167.787C97.5344 168.97 99.268 170.701 100.515 172.992C101.762 175.283 102.386 178.034 102.386 181.247V214.279H95.3768V180.773C95.3768 177.823 94.5662 175.83 92.9573 174.76C91.3484 173.701 89.3654 173.166 86.9958 173.166H67.3901C65.033 173.166 63.0375 173.701 61.4286 174.76C59.8197 175.83 59.0091 177.823 59.0091 180.773V214.279H51.9999V181.247C51.9999 176.403 53.3344 172.655 56.0159 170.003L56.0283 169.991ZM66.1055 193.062H88.3677V200.06H66.1055V193.062Z" fill="black"/>
<path d="M98.8439 223.43H102.935C104.656 223.43 106.015 223.243 107.013 222.882C108.011 222.521 108.771 221.787 109.295 220.678C109.819 219.57 110.081 217.952 110.081 215.823V166.006H117.09V215.885C117.09 220.865 115.98 224.576 113.76 226.991C111.54 229.419 108.135 230.627 103.546 230.627H98.8439V223.418V223.43ZM110.069 152.086H117.078V159.768H110.069V152.086Z" fill="black"/>
<path d="M127.878 210.319C125.222 207.692 123.9 203.957 123.9 199.101V166.006H130.909V199.512C130.909 202.5 131.72 204.517 133.328 205.563C134.937 206.609 136.92 207.132 139.29 207.132H158.684C161.041 207.132 163.011 206.609 164.608 205.563C166.192 204.517 166.99 202.5 166.99 199.512V166.006H173.999V199.101C173.999 203.944 172.665 207.692 169.983 210.319C167.302 212.946 163.76 214.266 159.37 214.266H138.467C134.064 214.266 130.535 212.959 127.878 210.319Z" fill="black"/>
<path d="M184.787 210.494C182.131 207.979 180.809 204.318 180.809 199.524V180.773C180.809 175.967 182.131 172.319 184.787 169.804C187.444 167.289 190.998 166.031 195.438 166.031H214.969V173.166H196.186C193.829 173.166 191.834 173.689 190.225 174.735C188.616 175.781 187.805 177.798 187.805 180.786V199.537C187.805 202.525 188.616 204.542 190.225 205.588C191.834 206.634 193.817 207.157 196.186 207.157H215.655C218.012 207.157 219.995 206.634 221.616 205.588C223.225 204.542 224.036 202.525 224.036 199.537V150.331H231.12V199.325C231.12 204.131 229.76 207.817 227.042 210.407C224.323 212.996 220.756 214.279 216.353 214.279H195.451C190.998 214.279 187.456 213.021 184.8 210.506L184.787 210.494Z" fill="black"/>
<path d="M245.088 212.56C242.843 211.427 241.085 209.734 239.813 207.493C238.541 205.252 237.904 202.5 237.904 199.238V181.022C237.904 176.179 239.264 172.456 241.983 169.879C244.702 167.301 248.293 166.006 252.733 166.006H273.561C278.014 166.006 281.556 167.264 284.212 169.779C286.869 172.294 288.191 175.955 288.191 180.748V214.254H281.107V180.748C281.107 177.797 280.309 175.805 278.725 174.734C277.141 173.676 275.133 173.141 272.738 173.141H253.27C250.913 173.141 248.917 173.676 247.308 174.734C245.699 175.805 244.889 177.797 244.889 180.748V199.499C244.889 202.45 245.699 204.455 247.308 205.513C248.917 206.584 250.9 207.107 253.27 207.107H272.052V214.241H252.783C249.877 214.241 247.308 213.681 245.051 212.548L245.088 212.56Z" fill="black"/>
<path d="M250.875 246.838C249.166 245.456 248.281 243.589 248.281 241.161C248.281 240.439 248.331 239.667 248.505 238.895C249.229 235.807 250.775 232.881 253.257 230.129C255.689 227.378 258.508 225.547 261.763 224.614C262.698 224.389 263.534 224.277 264.307 224.277C267.288 224.277 268.897 225.485 269.109 227.863C269.109 228.087 269.109 228.299 269.059 228.585C268.785 230.079 267.512 231.561 265.193 233.105C262.811 234.649 259.231 235.919 254.305 236.853C253.918 237.787 253.581 238.671 253.419 239.443C253.307 240.053 253.257 240.551 253.257 241.049C253.257 242.755 253.918 243.975 255.19 244.796C256.462 245.631 258.171 246.004 260.379 246.004C266.34 245.618 272.139 244.025 277.777 241.211C283.352 238.397 288.602 235.421 293.466 232.171C293.853 231.947 294.19 231.835 294.464 231.835C294.801 231.835 295.075 231.947 295.3 232.109C295.524 232.271 295.636 232.495 295.636 232.769V232.931C295.586 233.205 295.362 233.479 294.975 233.753C288.016 238.222 281.493 241.808 275.469 244.51C269.396 247.262 264.033 248.706 259.443 248.868C255.415 248.868 252.596 248.208 250.875 246.826V246.838ZM263.309 231.673C264.906 230.739 265.791 229.855 265.904 229.133V228.909C265.904 228.249 265.405 227.913 264.357 227.863C263.422 227.863 262.087 228.361 260.491 229.295C258.894 230.291 257.173 231.947 255.465 234.313C259.057 233.541 261.651 232.657 263.309 231.661V231.673Z" fill="#FC5800"/>
<path d="M293.204 260.41C291.77 257.932 291.047 254.396 291.047 249.926C291.047 244.024 291.982 237.014 293.865 228.797C295.362 221.899 297.12 214.902 299.166 207.892C301.149 200.882 303.032 194.432 304.853 188.53C306.35 183.625 307.559 179.591 308.495 176.341C308.832 175.407 309.268 174.685 309.767 174.249C310.266 173.813 310.765 173.589 311.264 173.589C311.875 173.589 312.473 173.863 312.972 174.473C313.471 175.083 313.696 175.855 313.696 176.901C313.696 177.287 313.646 177.723 313.533 178.221C313.421 178.719 313.259 179.267 313.035 179.877C311.538 184.011 309.33 190.909 306.3 200.558C303.257 210.208 300.613 220.081 298.343 230.291C296.634 237.961 295.798 244.41 295.798 249.59C295.798 252.342 296.135 254.558 296.734 256.264C297.333 257.969 298.393 259.015 299.889 259.302L300.662 259.351C303.094 259.351 306.3 257.92 310.278 254.994C314.257 252.068 318.235 248.544 322.264 244.41C326.292 240.277 329.722 236.193 332.59 232.171C332.752 232.059 332.927 231.947 333.139 231.897C333.301 231.847 333.476 231.847 333.638 231.847C333.975 231.847 334.249 231.897 334.523 232.009C334.798 232.171 334.91 232.345 334.91 232.557V232.607C334.91 232.607 334.91 232.657 334.86 232.657V232.769L334.748 232.881C333.862 234.263 332.428 236.13 330.433 238.558C328.45 240.986 326.117 243.576 323.423 246.39C320.717 249.204 317.898 251.906 314.968 254.496C311.987 257.085 309.056 259.19 306.237 260.833C303.419 262.477 300.825 263.311 298.555 263.311C296.285 263.311 294.576 262.315 293.192 260.385L293.204 260.41Z" fill="#FC5800"/>
<path d="M330.994 246.838C329.285 245.456 328.4 243.589 328.4 241.161C328.4 240.439 328.45 239.667 328.624 238.895C329.348 235.807 330.894 232.881 333.376 230.129C335.808 227.378 338.627 225.547 341.882 224.614C342.817 224.389 343.653 224.277 344.426 224.277C347.407 224.277 349.016 225.485 349.228 227.863C349.228 228.087 349.228 228.299 349.178 228.585C348.903 230.079 347.631 231.561 345.312 233.105C342.929 234.649 339.35 235.919 334.424 236.853C334.037 237.787 333.7 238.671 333.538 239.443C333.426 240.053 333.376 240.551 333.376 241.049C333.376 242.755 334.037 243.975 335.309 244.796C336.581 245.631 338.29 246.004 340.497 246.004C346.459 245.618 352.258 244.025 357.896 241.211C363.47 238.397 368.721 235.421 373.585 232.171C373.972 231.947 374.308 231.835 374.583 231.835C374.92 231.835 375.194 231.947 375.418 232.109C375.643 232.271 375.755 232.495 375.755 232.769V232.931C375.705 233.205 375.481 233.479 375.094 233.753C368.135 238.222 361.612 241.808 355.588 244.51C349.515 247.262 344.152 248.706 339.562 248.868C335.534 248.868 332.715 248.208 330.994 246.826V246.838ZM343.428 231.673C345.025 230.739 345.91 229.855 346.022 229.133V228.909C346.022 228.249 345.524 227.913 344.476 227.863C343.541 227.863 342.206 228.361 340.61 229.295C339.013 230.291 337.292 231.947 335.584 234.313C339.175 233.541 341.77 232.657 343.428 231.661V231.673Z" fill="#FC5800"/>
<path d="M370.28 261.182C369.557 260.746 369.17 260.074 369.17 259.252L369.22 258.704C369.382 257.982 369.831 257.16 370.542 256.226C371.814 254.795 373.36 253.413 375.244 252.093C377.127 250.773 378.998 249.553 380.819 248.457C380.981 248.407 381.093 248.295 381.205 248.233C380.158 246.963 379.048 245.693 377.775 244.535C376.341 243.265 375.069 241.945 373.959 240.513C372.849 239.131 372.3 237.475 372.3 235.545C372.3 234.935 372.35 234.338 372.525 233.665C373.348 230.851 375.68 228.262 379.484 225.784C383.3 223.306 386.556 222.086 389.312 222.086C390.472 222.086 391.407 222.36 392.13 222.858C392.854 223.406 393.29 224.29 393.403 225.51C393.403 225.734 393.403 225.946 393.353 226.232C393.303 226.618 393.128 227.004 392.916 227.278C392.692 227.552 392.48 227.714 392.255 227.714C392.205 227.714 392.093 227.664 392.031 227.602C391.918 227.552 391.806 227.49 391.756 227.328C391.37 226.718 390.596 226.444 389.549 226.444C387.616 226.444 385.346 227.216 382.702 228.809C379.995 230.403 378.287 232.445 377.563 234.935C377.514 235.433 377.451 235.931 377.451 236.479C377.613 238.185 378.112 239.567 378.885 240.613C379.659 241.721 380.594 242.705 381.642 243.651C382.477 244.423 383.35 245.307 384.186 246.241C386.618 244.809 388.776 243.539 390.646 242.381C392.854 240.999 395.236 239.567 397.83 238.073C400.424 236.579 403.854 234.649 408.219 232.333C408.656 231.997 409.105 231.835 409.541 231.835C409.815 231.835 410.04 231.885 410.202 231.997C410.364 232.159 410.476 232.333 410.476 232.545V232.595C410.427 232.756 410.314 232.981 410.04 233.205C405.787 235.471 402.195 237.401 399.377 239.106C396.508 240.812 393.852 242.468 391.42 244.012C389.486 245.22 387.441 246.49 385.283 247.822C386.057 249.204 386.443 250.524 386.443 251.794C386.443 252.23 386.393 252.678 386.331 253.114C385.782 255.268 384.51 257.086 382.465 258.629C380.419 260.173 377.987 261.169 375.231 261.667C374.508 261.78 373.847 261.829 373.186 261.829C371.914 261.829 370.978 261.605 370.255 261.169L370.28 261.182ZM379.172 256.214C381.105 255.168 382.328 253.786 382.814 252.192L382.864 251.582C382.864 250.972 382.702 250.374 382.315 249.764C379.272 251.694 377.065 253.288 375.743 254.446C374.358 255.604 373.647 256.488 373.535 257.036V257.198C373.535 257.633 373.872 257.857 374.583 257.857C375.743 257.857 377.239 257.31 379.172 256.202V256.214Z" fill="#FC5800"/>
</g>
<defs>
<clipPath id="clip0_15_198">
<rect width="410.359" height="262.814" fill="white" transform="translate(0.142212 0.520996)"/>
</clipPath>
</defs>
</svg>
